<?xml version="1.0" encoding="UTF-8" standalone="no"?>
<svg
   xmlns:dc="http://purl.org/dc/elements/1.1/"
   xmlns:cc="http://creativecommons.org/ns#"
   xmlns:rdf="http://www.w3.org/1999/02/22-rdf-syntax-ns#"
   xmlns:svg="http://www.w3.org/2000/svg"
   xmlns="http://www.w3.org/2000/svg"
   xmlns:sodipodi="http://sodipodi.sourceforge.net/DTD/sodipodi-0.dtd"
   xmlns:inkscape="http://www.inkscape.org/namespaces/inkscape"
   sodipodi:docname="drawing-4.svg"
   inkscape:version="1.0 (4035a4fb49, 2020-05-01)"
   id="svg868"
   version="1.1"
   viewBox="0 0 38.722485 38.723545"
   height="38.723545mm"
   width="38.722485mm">
  <defs
     id="defs862" />
  <sodipodi:namedview
     inkscape:window-maximized="0"
     inkscape:window-y="0"
     inkscape:window-x="256"
     inkscape:window-height="1055"
     inkscape:window-width="1424"
     showgrid="false"
     inkscape:document-rotation="0"
     inkscape:current-layer="layer1"
     inkscape:document-units="mm"
     inkscape:cy="93.178349"
     inkscape:cx="170.31921"
     inkscape:zoom="0.35"
     inkscape:pageshadow="2"
     inkscape:pageopacity="0.0"
     borderopacity="1.0"
     bordercolor="#666666"
     pagecolor="#ffffff"
     id="base" />
  <metadata
     id="metadata865">
    <rdf:RDF>
      <cc:Work
         rdf:about="">
        <dc:format>image/svg+xml</dc:format>
        <dc:type
           rdf:resource="http://purl.org/dc/dcmitype/StillImage" />
        <dc:title></dc:title>
      </cc:Work>
    </rdf:RDF>
  </metadata>
  <g
     transform="translate(-60.76971,-123.51323)"
     id="layer1"
     inkscape:groupmode="layer"
     inkscape:label="Layer 1">
    <g
       id="knowledge"
       transform="matrix(0.26458333,0,0,0.26458333,60.76971,123.51421)">
      <path
         id="Path_568"
         data-name="Path 568"
         d="m 17.159,95.087 v 24.966 H 34.6 v 26.3 h 60.02 v -17.787 c 0,-16.093 3.518,-32.957 10.737,-51.388 h 9.211 l 7.32,7.32 a 12.868,12.868 0 1 0 6.063,-6.063 L 118.119,68.6 h -9.31 a 50.423,50.423 0 0 0 2.242,-8.578 h 10.317 a 12.861,12.861 0 1 0 0,-8.572 h -9.6 a 52.049,52.049 0 0 0 -0.71,-8.575 h 7.06 l 9.832,-9.832 a 12.868,12.868 0 1 0 -6.063,-6.063 l -7.32,7.32 h -5.715 A 51.467,51.467 0 0 0 60.942,0 C 35.582,-0.3 14.288,17.631 9.636,40.922 a 51.919,51.919 0 0 0 0.717,23.944 L 0.014,82.663 Z m 116.334,-9.334 a 4.287,4.287 0 1 1 -4.288,4.287 4.292,4.292 0 0 1 4.289,-4.287 z m 0,-34.3 a 4.288,4.288 0 1 1 -4.288,4.287 4.292,4.292 0 0 1 4.289,-4.287 z m 0,-34.3 a 4.287,4.287 0 1 1 -4.288,4.287 4.292,4.292 0 0 1 4.289,-4.286 z m -33.671,50.9 c -0.078,0.183 -0.152,0.364 -0.229,0.546 H 73.171 a 21.337,21.337 0 0 0 3.868,-8.578 h 25.291 a 42.062,42.062 0 0 1 -2.507,8.036 z M 68.9,55.741 A 12.862,12.862 0 1 1 56.033,42.879 12.877,12.877 0 0 1 68.9,55.741 Z m 34.3,-4.287 H 77.039 a 21.347,21.347 0 0 0 -3.868,-8.575 h 29.154 a 42.591,42.591 0 0 1 0.875,8.574 z M 18.045,42.606 C 22.033,22.642 40.029,8.333 60.845,8.578 A 43.039,43.039 0 0 1 99.586,34.3 H 56.033 a 21.436,21.436 0 1 0 0,42.872 h 40.146 c -6.808,18.243 -10.134,35.134 -10.134,51.391 v 9.209 H 43.17 v -26.3 H 25.734 V 90.711 l -14.41,-10.442 8.311,-14.3 a 43.944,43.944 0 0 1 -1.59,-23.36 z"
         transform="translate(-0.014)"
         fill="#cd3333" />
      <path
         id="Path_569"
         data-name="Path 569"
         d="m 181,180.012 h 8.575 v 8.575 H 181 Z"
         transform="translate(-129.267,-128.559)"
         fill="#cd3333" />
    </g>
  </g>
</svg>
