<?xml version="1.0" encoding="UTF-8" standalone="no"?>
<svg
   xmlns:dc="http://purl.org/dc/elements/1.1/"
   xmlns:cc="http://creativecommons.org/ns#"
   xmlns:rdf="http://www.w3.org/1999/02/22-rdf-syntax-ns#"
   xmlns:svg="http://www.w3.org/2000/svg"
   xmlns="http://www.w3.org/2000/svg"
   xmlns:sodipodi="http://sodipodi.sourceforge.net/DTD/sodipodi-0.dtd"
   xmlns:inkscape="http://www.inkscape.org/namespaces/inkscape"
   width="185.41209mm"
   height="177.53778mm"
   viewBox="0 0 185.41209 177.53778"
   version="1.1"
   id="svg577"
   inkscape:version="1.0 (4035a4fb49, 2020-05-01)"
   sodipodi:docname="drawing.svg">
  <defs
     id="defs571" />
  <sodipodi:namedview
     id="base"
     pagecolor="#ffffff"
     bordercolor="#666666"
     borderopacity="1.0"
     inkscape:pageopacity="0.0"
     inkscape:pageshadow="2"
     inkscape:zoom="0.35"
     inkscape:cx="347.52793"
     inkscape:cy="358.36162"
     inkscape:document-units="mm"
     inkscape:current-layer="layer1"
     inkscape:document-rotation="0"
     showgrid="false"
     inkscape:window-width="1424"
     inkscape:window-height="1033"
     inkscape:window-x="143"
     inkscape:window-y="0"
     inkscape:window-maximized="0" />
  <metadata
     id="metadata574">
    <rdf:RDF>
      <cc:Work
         rdf:about="">
        <dc:format>image/svg+xml</dc:format>
        <dc:type
           rdf:resource="http://purl.org/dc/dcmitype/StillImage" />
        <dc:title />
      </cc:Work>
    </rdf:RDF>
  </metadata>
  <g
     inkscape:label="Layer 1"
     inkscape:groupmode="layer"
     id="layer1"
     transform="translate(-13.883235,-53.350154)">
    <g
       id="color-wheel_1_"
       data-name="color-wheel (1)"
       transform="matrix(0.26458333,0,0,0.26458333,35.805801,50.538951)"
       opacity="0.42">
      <path
         id="Path_519"
         data-name="Path 519"
         d="m 508.054,189.13 -36.181,-32.309 -73.719,28.332 -10.03,41.393 -38.551,174.884 125.183,54.535 15.534,-20.056 A 333.779,333.779 0 0 0 508.054,189.13 Z"
         transform="translate(140.139,58.608)"
         fill="#fe7d43" />
      <g
         id="Group_145"
         data-name="Group 145"
         transform="translate(0,16.269)">
        <g
           id="XMLID_855_">
          <g
             id="Group_144"
             data-name="Group 144">
            <path
               id="Path_520"
               data-name="Path 520"
               d="m 415.6,316.284 -43.939,21.216 -112.951,79.564 50.341,112.313 35.94,8.905 v 0.014 c 80.313,-29.867 144.938,-90.819 182.174,-167.238 z"
               transform="translate(103.713,106.265)"
               fill="#ee6161" />
            <path
               id="Path_521"
               data-name="Path 521"
               d="M 357.122,401.545 333.157,384.745 189.941,363 121.132,473.542 152.8,513.434 v 0.014 a 333.808,333.808 0 0 0 247.34,6.122 v -0.014 z"
               transform="translate(48.56,124.992)"
               fill="#c2a1d5" />
            <path
               id="Path_522"
               data-name="Path 522"
               d="M 237.487,396.763 157.887,271.714 18.99,314.686 v 60.174 a 333.825,333.825 0 0 0 174.76,175.181 v -0.014 l 50.334,-115.1 z"
               transform="translate(7.613,88.398)"
               fill="#8ac9fe" />
            <path
               id="Path_523"
               data-name="Path 523"
               d="M 58.812,138.94 21.1,180.734 H 21.086 A 333.85,333.85 0 0 0 26.6,428.088 h 0.014 l 115.867,-48.527 15.149,-34.8 9.1,-171.169 z"
               transform="translate(0,35.17)"
               fill="#75cdd5" />
            <path
               id="Path_524"
               data-name="Path 524"
               d="M 248.81,38.284 H 181.8 A 333.729,333.729 0 0 0 15.05,221.086 h 0.014 l 117.324,44.856 76.712,-38.835 101.45,-91.258 z"
               transform="translate(6.033,-5.181)"
               fill="#6cf5c2" />
            <path
               id="Path_525"
               data-name="Path 525"
               d="m 404.236,214.414 -6.146,-27.326 -75.733,19.2 -4.079,34.952 a 117.368,117.368 0 0 1 -5.2,86.911 l 1.639,27.887 49.483,26.333 29.6,-14.295 a 207.691,207.691 0 0 0 10.438,-153.663 z"
               transform="translate(125.509,54.472)"
               fill="#fd6930" />
            <path
               id="Path_526"
               data-name="Path 526"
               d="m 334.416,287.784 a 117.418,117.418 0 0 1 -63.754,59.3 l -10.8,20.32 22.516,57.66 19.133,6.633 A 207.673,207.673 0 0 0 415.134,327.709 Z"
               transform="translate(104.174,94.84)"
               fill="#e94444" />
            <path
               id="Path_527"
               data-name="Path 527"
               d="m 307.284,330.431 a 117.3,117.3 0 0 1 -87.051,-1.107 l -23.626,2.561 -28.1,57.291 15.641,22.661 a 207.746,207.746 0 0 0 153.985,3.208 z"
               transform="translate(67.551,111.493)"
               fill="#a274bf" />
            <path
               id="Path_528"
               data-name="Path 528"
               d="m 184.768,289.689 -18.485,-13.366 -60.324,20.9 -4.25,27.26 a 207.705,207.705 0 0 0 109.213,108.6 l 36.087,-82.512 a 117.4,117.4 0 0 1 -62.241,-60.882 z"
               transform="translate(40.774,90.245)"
               fill="#26a6fe" />
            <path
               id="Path_529"
               data-name="Path 529"
               d="M 438.422,55.322 A 333.265,333.265 0 0 0 134.08,47.757 l 53.948,113.472 53.6,24.036 168.639,28.55 49.069,-104.128 z"
               transform="translate(53.751,-14.654)"
               fill="#fee97d" />
          </g>
        </g>
      </g>
      <path
         id="Path_530"
         data-name="Path 530"
         d="m 572.114,222.031 a 9.012,9.012 0 0 1 -5.842,11.543 l -45.389,14.163 -85.972,26.827 A 243.328,243.328 0 0 0 319.7,135.667 l 43.68,-78.73 23.12,-41.662 a 9,9 0 0 1 12.4,-3.432 390.527,390.527 0 0 1 173.214,210.188 z"
         transform="translate(128.164)"
         fill="#fec165" />
      <path
         id="Path_531"
         data-name="Path 531"
         d="m 179.671,277.48 a 116.52,116.52 0 0 1 6.934,-39.771 l -1.034,-48.8 h -50.2 l -32.889,16.65 a 207.818,207.818 0 0 0 4.063,153.971 l 83.059,-34.8 a 116.515,116.515 0 0 1 -9.933,-47.25 z"
         transform="translate(35.939,71.472)"
         fill="#2abcc8" />
      <path
         id="Path_532"
         data-name="Path 532"
         d="m 244.191,132.863 -42.025,-13.58 A 207.57,207.57 0 0 0 98.809,233.469 l 84.123,32.15 a 117.422,117.422 0 0 1 57.9,-65.015 v -0.014 l 19.271,-21.7 z"
         transform="translate(39.611,43.56)"
         fill="#00f2a6" />
      <path
         id="Path_533"
         data-name="Path 533"
         d="m 362.06,129.212 h -0.018 a 207.4,207.4 0 0 0 -189.452,-3.92 l 38.664,81.321 a 117.181,117.181 0 0 1 107.112,1.359 l 29.463,1.45 28.829,-38.437 z"
         transform="translate(69.189,37.555)"
         fill="#fedf30" />
      <path
         id="Path_534"
         data-name="Path 534"
         d="M 452.308,238.782 418.351,249.373 333.02,276.2 A 118.671,118.671 0 0 0 276.3,209.485 l 43.551,-78.5 17.245,-31.1 a 243.328,243.328 0 0 1 115.209,138.9 z"
         transform="translate(110.766,35.783)"
         fill="#fdb441" />
    </g>
  </g>
</svg>
