<?xml version="1.0" encoding="UTF-8" standalone="no"?>
<svg
   xmlns:dc="http://purl.org/dc/elements/1.1/"
   xmlns:cc="http://creativecommons.org/ns#"
   xmlns:rdf="http://www.w3.org/1999/02/22-rdf-syntax-ns#"
   xmlns:svg="http://www.w3.org/2000/svg"
   xmlns="http://www.w3.org/2000/svg"
   xmlns:sodipodi="http://sodipodi.sourceforge.net/DTD/sodipodi-0.dtd"
   xmlns:inkscape="http://www.inkscape.org/namespaces/inkscape"
   sodipodi:docname="drawing-2.svg"
   inkscape:version="1.0 (4035a4fb49, 2020-05-01)"
   id="svg787"
   version="1.1"
   viewBox="0 0 30.361139 36.781479"
   height="36.781479mm"
   width="30.361139mm">
  <defs
     id="defs781" />
  <sodipodi:namedview
     inkscape:window-maximized="0"
     inkscape:window-y="0"
     inkscape:window-x="192"
     inkscape:window-height="1055"
     inkscape:window-width="1424"
     showgrid="false"
     inkscape:document-rotation="0"
     inkscape:current-layer="layer1"
     inkscape:document-units="mm"
     inkscape:cy="20.936899"
     inkscape:cx="-116.91033"
     inkscape:zoom="0.35"
     inkscape:pageshadow="2"
     inkscape:pageopacity="0.0"
     borderopacity="1.0"
     bordercolor="#666666"
     pagecolor="#ffffff"
     id="base" />
  <metadata
     id="metadata784">
    <rdf:RDF>
      <cc:Work
         rdf:about="">
        <dc:format>image/svg+xml</dc:format>
        <dc:type
           rdf:resource="http://purl.org/dc/dcmitype/StillImage" />
        <dc:title></dc:title>
      </cc:Work>
    </rdf:RDF>
  </metadata>
  <g
     transform="translate(-136.76586,-142.62711)"
     id="layer1"
     inkscape:groupmode="layer"
     inkscape:label="Layer 1">
    <g
       id="innovation"
       transform="matrix(0.26458333,0,0,0.26458333,136.75392,142.63905)">
      <g
         id="Group_150"
         data-name="Group 150">
        <path
           id="Path_557"
           data-name="Path 557"
           d="m 157.954,135.016 a 43.273,43.273 0 0 0 25.346,-39.324 42.836,42.836 0 0 0 -8.137,-25.223 2.036,2.036 0 0 0 -3.3,2.383 38.792,38.792 0 0 1 7.367,22.841 39.193,39.193 0 0 1 -22.959,35.616 7.57,7.57 0 0 0 -4.458,6.867 v 9.22 h -23.346 v -9.22 a 7.517,7.517 0 0 0 -4.4,-6.841 39.1,39.1 0 1 1 41.718,-65.147 2.036,2.036 0 0 0 2.672,-3.071 43.166,43.166 0 1 0 -46.068,71.928 3.438,3.438 0 0 1 2.007,3.131 v 9.22 h -0.706 a 4.784,4.784 0 0 0 -4.777,4.78 v 3.29 a 4.78,4.78 0 0 0 4.411,4.759 l 1.725,10.695 a 7.49,7.49 0 0 0 7.425,6.323 h 2.918 a 2.036,2.036 0 1 0 0,-4.071 h -2.918 a 3.435,3.435 0 0 1 -3.405,-2.9 l -1.617,-10.028 h 3.19 a 2.036,2.036 0 1 0 0,-4.071 h -6.952 a 0.707,0.707 0 0 1 -0.706,-0.706 v -3.29 a 0.708,0.708 0 0 1 0.706,-0.708 h 32.9 a 0.708,0.708 0 0 1 0.706,0.708 v 3.29 a 0.707,0.707 0 0 1 -0.706,0.706 h -16.449 a 2.036,2.036 0 1 0 0,4.071 h 12.69 l -1.617,10.028 a 3.435,3.435 0 0 1 -3.405,2.9 h -2.918 a 2.036,2.036 0 0 0 0,4.071 h 2.918 a 7.49,7.49 0 0 0 7.425,-6.323 l 1.725,-10.695 a 4.78,4.78 0 0 0 4.411,-4.759 v -3.29 a 4.784,4.784 0 0 0 -4.777,-4.78 h -0.706 v -9.22 a 3.492,3.492 0 0 1 2.067,-3.16 z"
           transform="translate(-82.72,-38.272)"
           fill="#cd3333" />
        <path
           id="Path_558"
           data-name="Path 558"
           d="m 163.646,143.457 v 12.064 a 2.036,2.036 0 0 0 2.036,2.036 h 46.063 a 2.036,2.036 0 0 0 2.036,-2.036 v -12.064 a 13.018,13.018 0 0 0 -13,-13 h -1.51 a 15.745,15.745 0 1 0 -21.107,0 h -1.51 a 13.018,13.018 0 0 0 -13,13 z m 13.394,-24.676 a 11.673,11.673 0 1 1 11.673,11.673 11.687,11.687 0 0 1 -11.673,-11.673 z m 23.737,15.745 a 8.942,8.942 0 0 1 8.931,8.932 v 10.028 h -7.444 v -3.448 a 2.036,2.036 0 0 0 -4.071,0 v 3.448 h -18.96 v -3.448 a 2.036,2.036 0 0 0 -4.071,0 v 3.448 h -7.444 v -10.028 a 8.942,8.942 0 0 1 8.932,-8.932 z"
           transform="translate(-131.292,-75.069)"
           fill="#cd3333" />
        <path
           id="Path_559"
           data-name="Path 559"
           d="m 250.536,9.555 a 2.036,2.036 0 0 0 2.036,-2.036 V 2.036 a 2.036,2.036 0 1 0 -4.071,0 v 5.483 a 2.036,2.036 0 0 0 2.035,2.036 z"
           transform="translate(-193.115)"
           fill="#cd3333" />
        <path
           id="Path_560"
           data-name="Path 560"
           d="m 149.487,35.139 a 2.036,2.036 0 0 0 3.526,-2.036 l -2.742,-4.749 a 2.036,2.036 0 1 0 -3.526,2.036 z"
           transform="translate(-118.78,-19.916)"
           fill="#cd3333" />
        <path
           id="Path_561"
           data-name="Path 561"
           d="m 72.8,105.823 4.749,2.742 a 2.036,2.036 0 1 0 2.036,-3.526 L 74.838,102.3 a 2.036,2.036 0 1 0 -2.036,3.526 z"
           transform="translate(-64.364,-74.333)"
           fill="#cd3333" />
        <path
           id="Path_562"
           data-name="Path 562"
           d="m 54,206.089 a 2.036,2.036 0 0 0 -2.036,-2.036 h -5.481 a 2.036,2.036 0 0 0 0,4.071 h 5.484 A 2.036,2.036 0 0 0 54,206.089 Z"
           transform="translate(-44.447,-148.668)"
           fill="#cd3333" />
        <path
           id="Path_563"
           data-name="Path 563"
           d="m 77.551,296.249 -4.751,2.742 a 2.036,2.036 0 1 0 2.036,3.526 l 4.749,-2.742 a 2.036,2.036 0 1 0 -2.036,-3.526 z"
           transform="translate(-64.364,-215.641)"
           fill="#cd3333" />
        <path
           id="Path_564"
           data-name="Path 564"
           d="m 341.442,35.884 a 2.035,2.035 0 0 0 2.781,-0.745 l 2.742,-4.749 a 2.036,2.036 0 0 0 -3.526,-2.036 L 340.7,33.1 a 2.035,2.035 0 0 0 0.742,2.784 z"
           transform="translate(-260.088,-19.916)"
           fill="#cd3333" />
        <path
           id="Path_565"
           data-name="Path 565"
           d="m 409.755,108.838 a 2.026,2.026 0 0 0 1.016,-0.273 l 4.749,-2.742 a 2.036,2.036 0 1 0 -2.036,-3.526 l -4.749,2.742 a 2.036,2.036 0 0 0 1.02,3.8 z"
           transform="translate(-309.116,-74.332)"
           fill="#cd3333" />
        <path
           id="Path_566"
           data-name="Path 566"
           d="m 439.869,204.053 h -5.484 a 2.036,2.036 0 0 0 0,4.071 h 5.484 a 2.036,2.036 0 0 0 0,-4.071 z"
           transform="translate(-327.064,-148.668)"
           fill="#cd3333" />
        <path
           id="Path_567"
           data-name="Path 567"
           d="m 415.52,298.991 -4.749,-2.742 a 2.036,2.036 0 0 0 -2.036,3.526 l 4.749,2.742 a 2.036,2.036 0 1 0 2.036,-3.526 z"
           transform="translate(-309.116,-215.64)"
           fill="#cd3333" />
      </g>
    </g>
  </g>
</svg>
