<?xml version="1.0" encoding="UTF-8" standalone="no"?>
<svg
   xmlns:dc="http://purl.org/dc/elements/1.1/"
   xmlns:cc="http://creativecommons.org/ns#"
   xmlns:rdf="http://www.w3.org/1999/02/22-rdf-syntax-ns#"
   xmlns:svg="http://www.w3.org/2000/svg"
   xmlns="http://www.w3.org/2000/svg"
   xmlns:sodipodi="http://sodipodi.sourceforge.net/DTD/sodipodi-0.dtd"
   xmlns:inkscape="http://www.inkscape.org/namespaces/inkscape"
   sodipodi:docname="drawing-3.svg"
   inkscape:version="1.0 (4035a4fb49, 2020-05-01)"
   id="svg837"
   version="1.1"
   viewBox="0 0 36.198124 37.333965"
   height="37.333965mm"
   width="36.198124mm">
  <defs
     id="defs831" />
  <sodipodi:namedview
     inkscape:window-maximized="0"
     inkscape:window-y="0"
     inkscape:window-x="224"
     inkscape:window-height="1055"
     inkscape:window-width="1424"
     showgrid="false"
     inkscape:document-rotation="0"
     inkscape:current-layer="layer1"
     inkscape:document-units="mm"
     inkscape:cy="161.98095"
     inkscape:cx="222.69162"
     inkscape:zoom="0.35"
     inkscape:pageshadow="2"
     inkscape:pageopacity="0.0"
     borderopacity="1.0"
     bordercolor="#666666"
     pagecolor="#ffffff"
     id="base" />
  <metadata
     id="metadata834">
    <rdf:RDF>
      <cc:Work
         rdf:about="">
        <dc:format>image/svg+xml</dc:format>
        <dc:type
           rdf:resource="http://purl.org/dc/dcmitype/StillImage" />
        <dc:title></dc:title>
      </cc:Work>
    </rdf:RDF>
  </metadata>
  <g
     transform="translate(-46.912842,-105.30921)"
     id="layer1"
     inkscape:groupmode="layer"
     inkscape:label="Layer 1">
    <g
       id="money"
       transform="matrix(0.26458333,0,0,0.26458333,46.913371,105.30914)">
      <g
         id="Group_151"
         data-name="Group 151">
        <path
           id="Path_570"
           data-name="Path 570"
           d="m 143.084,101 c -2.632,-3.868 -7.1,-4.813 -11.948,-2.53 l -2.571,1.13 c 4.054,-8.64 4.557,-18.272 2.539,-27.37 -2.318,-10.449 -7.915,-20.572 -16.638,-30.086 a 2.067,2.067 0 1 0 -3.047,2.793 c 8.226,8.973 13.491,18.457 15.65,28.188 2.273,10.251 0.951,20.822 -4.851,29.269 l -25.726,11.329 0.021,-2.905 a 2.02,2.02 0 0 0 -0.01,-0.22 12.952,12.952 0 0 0 -11.1,-11.57 L 85.35,99.021 62.485,96.388 C 53.693,95.136 51.428,89.868 39.521,86.863 A 44.493,44.493 0 0 1 42.8,65 c 4.527,-11.222 13.383,-22.125 25.66,-31.615 4.576,3.244 24.991,3.648 29.559,-0.537 2.34,1.777 4.574,3.609 6.655,5.463 a 2.067,2.067 0 1 0 2.749,-3.086 c -2.281,-2.032 -4.734,-4.037 -7.308,-5.975 A 7.357,7.357 0 0 0 97.647,21.919 C 104.12,12.1 106,5.677 103.4,2.312 101.617,0 99.4,1.085 98.447,1.548 96.839,2.333 95.962,2.374 94.483,1.406 a 7.43,7.43 0 0 0 -8.7,0 3.332,3.332 0 0 1 -4.176,0 7.429,7.429 0 0 0 -8.7,0 C 71.407,2.386 70.53,2.325 68.948,1.538 68,1.068 65.777,-0.035 63.98,2.277 c -2.541,3.271 -0.841,9.492 5.193,18.974 a 6.73,6.73 0 0 0 -1.051,0.7 A 13.954,13.954 0 0 0 56.1,17.41 15.145,15.145 0 0 1 45.818,14.979 a 2.067,2.067 0 0 0 -2.3,3.433 19.246,19.246 0 0 0 13.042,3.106 10.1,10.1 0 0 1 9.23,4.037 q -0.038,0.132 -0.071,0.266 a 35.468,35.468 0 0 0 -6.553,0.714 c -6.265,1.3 -10.916,4.281 -13.449,8.611 a 2.067,2.067 0 1 0 3.567,2.087 c 3.769,-6.441 12.968,-7.228 16.621,-7.278 0.016,0.045 0.034,0.09 0.051,0.136 C 52.92,40.149 43.843,51.365 38.968,63.451 a 49.053,49.053 0 0 0 -3.687,22.565 43,43 0 0 0 -6,-0.464 V 84.3 a 6,6 0 0 0 -6,-6 h -9.486 a 6,6 0 0 0 -6,6 v 48.133 a 6,6 0 0 0 6,6 h 9.487 a 6,6 0 0 0 6,-6 v -0.589 l 20.7,7.7 a 24.761,24.761 0 0 0 8.663,1.56 h 30.83 a 24.8,24.8 0 0 0 13.293,-3.857 c 41.137,-26.078 38.639,-24.455 38.876,-24.666 A 8.863,8.863 0 0 0 143.084,101 Z M 94.142,30.4 a 44.794,44.794 0 0 1 -22.465,0 c -3.244,-0.82 -2.3,-6.6 1.182,-5.731 a 40.3,40.3 0 0 0 20.1,0 c 3.426,-0.863 4.479,4.895 1.183,5.731 z M 67.056,5.217 67.104,5.241 a 7.332,7.332 0 0 0 8.062,-0.375 c 3.521,-2.3 3.9,1.391 8.527,1.391 a 7.179,7.179 0 0 0 4.351,-1.391 3.334,3.334 0 0 1 4.177,0 c 2.826,1.849 5.218,1.758 8.1,0.37 0.425,1.533 -0.537,6.1 -6.666,15.227 C 90.612,20.411 86.195,23.4 73.693,20.618 67.578,11.376 66.632,6.762 67.06,5.218 Z m 71.957,104.177 -38.456,24.368 a 20.672,20.672 0 0 1 -11.081,3.215 H 58.638 a 20.635,20.635 0 0 1 -7.222,-1.3 l -22.138,-8.24 V 105.18 a 2.067,2.067 0 1 0 -4.133,0 v 27.256 a 1.866,1.866 0 0 1 -1.864,1.864 h -9.486 a 1.866,1.866 0 0 1 -1.864,-1.864 V 84.3 a 1.866,1.866 0 0 1 1.864,-1.864 h 9.487 a 1.866,1.866 0 0 1 1.864,1.864 v 11.218 a 2.0665,2.0665 0 1 0 4.133,0 v -5.832 c 17.1,0.131 20.94,9.142 32.653,10.8 l 0.053,0.007 22.864,2.632 a 8.828,8.828 0 0 1 7.53,7.78 l -0.029,3.931 H 71.028 a 2.067,2.067 0 0 0 0,4.134 H 94.4 a 2.14,2.14 0 0 0 0.825,-0.172 l 37.6,-16.554 c 2.7,-1.2 5.169,-1.373 6.841,1.083 a 4.721,4.721 0 0 1 -0.654,6.066 z"
           transform="translate(-7.797,0.001)"
           fill="#cd3333" />
        <path
           id="Path_571"
           data-name="Path 571"
           d="m 251.574,206.288 a 2.067,2.067 0 0 0 2.067,-2.067 V 200.8 a 12.109,12.109 0 0 0 9.924,-10.019 10.6,10.6 0 0 0 -7.3,-12.125 c -0.946,-0.335 -1.817,-0.655 -2.621,-0.964 v -13.181 a 8.5,8.5 0 0 1 4.02,1.765 2.067,2.067 0 0 0 2.791,-3.048 12.808,12.808 0 0 0 -6.811,-2.89 V 157.4 a 2.067,2.067 0 1 0 -4.133,0 v 3.1 a 15.219,15.219 0 0 0 -1.533,0.375 9.993,9.993 0 0 0 -6.839,7.845 8.74,8.74 0 0 0 2.84,8.615 25.038,25.038 0 0 0 5.532,3.126 v 16.344 a 10.977,10.977 0 0 1 -6.428,-2.229 2.067,2.067 0 0 0 -2.263,3.459 15.137,15.137 0 0 0 8.69,2.9 v 3.281 a 2.067,2.067 0 0 0 2.064,2.072 z m -5.048,-32.2 a 4.659,4.659 0 0 1 -1.329,-4.6 5.913,5.913 0 0 1 3.97,-4.652 c 0.115,-0.035 0.228,-0.064 0.341,-0.095 v 11.163 a 17.43,17.43 0 0 1 -2.982,-1.817 z m 8.358,8.462 a 6.505,6.505 0 0 1 4.6,7.543 8.05,8.05 0 0 1 -5.848,6.479 V 182.1 c 0.407,0.148 0.818,0.3 1.248,0.449 z"
           transform="translate(-175.918,-112.521)"
           fill="#cd3333" />
      </g>
    </g>
  </g>
</svg>
