<?xml version="1.0" encoding="UTF-8" standalone="no"?>
<svg
   xmlns:dc="http://purl.org/dc/elements/1.1/"
   xmlns:cc="http://creativecommons.org/ns#"
   xmlns:rdf="http://www.w3.org/1999/02/22-rdf-syntax-ns#"
   xmlns:svg="http://www.w3.org/2000/svg"
   xmlns="http://www.w3.org/2000/svg"
   xmlns:sodipodi="http://sodipodi.sourceforge.net/DTD/sodipodi-0.dtd"
   xmlns:inkscape="http://www.inkscape.org/namespaces/inkscape"
   sodipodi:docname="account-icon.svg"
   inkscape:version="1.0 (4035a4fb49, 2020-05-01)"
   id="svg1019"
   version="1.1"
   viewBox="0 0 24.155134 26.501125"
   height="26.501125mm"
   width="24.155134mm">
  <defs
     id="defs1013" />
  <sodipodi:namedview
     inkscape:window-maximized="0"
     inkscape:window-y="0"
     inkscape:window-x="0"
     inkscape:window-height="729"
     inkscape:window-width="1350"
     showgrid="false"
     inkscape:document-rotation="0"
     inkscape:current-layer="layer1"
     inkscape:document-units="mm"
     inkscape:cy="148.48107"
     inkscape:cx="-24.661727"
     inkscape:zoom="0.34445423"
     inkscape:pageshadow="2"
     inkscape:pageopacity="0.0"
     borderopacity="1.0"
     bordercolor="#666666"
     pagecolor="#ffffff"
     id="base" />
  <metadata
     id="metadata1016">
    <rdf:RDF>
      <cc:Work
         rdf:about="">
        <dc:format>image/svg+xml</dc:format>
        <dc:type
           rdf:resource="http://purl.org/dc/dcmitype/StillImage" />
        <dc:title></dc:title>
      </cc:Work>
    </rdf:RDF>
  </metadata>
  <g
     transform="translate(-112.35842,-108.88105)"
     id="layer1"
     inkscape:groupmode="layer"
     inkscape:label="Layer 1">
    <g
       transform="matrix(0.26458333,0,0,0.26458333,59.083768,68.686009)"
       data-name="user (2)"
       id="user_2_">
      <path
         fill="#484343"
         transform="translate(148.012,79.925)"
         d="m 112.555,116.953 a 24.527,24.527 0 1 0 -27.135,0 47.064,47.064 0 0 0 -32.079,33.734 v 0 c 0.646,0.779 1.316,1.539 2,2.285 0.166,0.182 0.339,0.356 0.509,0.533 0.527,0.56 1.061,1.112 1.609,1.651 0.227,0.223 0.458,0.437 0.689,0.656 0.507,0.482 1.02,0.959 1.543,1.423 0.26,0.229 0.523,0.456 0.785,0.681 q 0.77,0.659 1.562,1.292 c 0.278,0.223 0.558,0.441 0.838,0.66 q 0.8,0.619 1.629,1.206 c 0.284,0.2 0.564,0.409 0.852,0.607 0.58,0.4 1.171,0.785 1.766,1.165 0.268,0.17 0.529,0.345 0.8,0.513 0.687,0.423 1.386,0.828 2.091,1.224 0.186,0.1 0.368,0.217 0.556,0.319 q 1.367,0.748 2.778,1.429 l 0.07,0.031 q 1.346,0.644 2.731,1.22 c 0.286,0.121 0.578,0.227 0.867,0.341 0.666,0.266 1.333,0.527 2.011,0.769 0.36,0.129 0.724,0.245 1.085,0.368 0.617,0.208 1.239,0.411 1.864,0.6 0.4,0.119 0.8,0.229 1.2,0.339 q 0.907,0.251 1.829,0.476 0.622,0.15 1.251,0.288 c 0.615,0.135 1.232,0.258 1.854,0.372 0.421,0.078 0.84,0.157 1.265,0.225 0.642,0.1 1.288,0.192 1.936,0.276 0.409,0.053 0.816,0.112 1.226,0.155 0.715,0.078 1.437,0.133 2.158,0.184 0.349,0.025 0.695,0.061 1.044,0.08 1.077,0.061 2.158,0.1 3.25,0.1 1.092,0 2.173,-0.035 3.25,-0.092 0.35,-0.018 0.7,-0.055 1.044,-0.08 0.724,-0.051 1.445,-0.106 2.158,-0.184 0.411,-0.045 0.818,-0.1 1.226,-0.155 0.648,-0.084 1.294,-0.172 1.936,-0.276 0.423,-0.07 0.844,-0.147 1.265,-0.225 0.621,-0.114 1.241,-0.237 1.854,-0.372 q 0.628,-0.138 1.251,-0.288 0.92,-0.224 1.829,-0.476 c 0.4,-0.11 0.8,-0.221 1.2,-0.339 0.627,-0.188 1.247,-0.39 1.864,-0.6 0.362,-0.123 0.728,-0.239 1.085,-0.368 0.677,-0.243 1.345,-0.5 2.011,-0.768 0.288,-0.114 0.58,-0.223 0.867,-0.341 0.918,-0.384 1.825,-0.787 2.718,-1.216 l 0.082,-0.037 q 1.41,-0.678 2.778,-1.429 c 0.188,-0.1 0.37,-0.215 0.556,-0.319 0.705,-0.4 1.4,-0.8 2.091,-1.224 0.27,-0.166 0.533,-0.341 0.8,-0.513 0.595,-0.38 1.185,-0.766 1.766,-1.165 0.286,-0.2 0.568,-0.4 0.852,-0.607 q 0.825,-0.592 1.629,-1.206 c 0.282,-0.217 0.56,-0.437 0.838,-0.66 q 0.791,-0.632 1.562,-1.292 c 0.264,-0.225 0.527,-0.452 0.785,-0.681 0.523,-0.464 1.036,-0.94 1.543,-1.423 0.229,-0.219 0.462,-0.435 0.689,-0.656 q 0.822,-0.809 1.609,-1.651 c 0.168,-0.18 0.341,-0.354 0.509,-0.533 0.685,-0.746 1.355,-1.506 2,-2.285 v 0 a 47.057,47.057 0 0 0 -32.081,-33.741 z"
         data-name="Path 432"
         id="Path_432" />
    </g>
  </g>
</svg>
