<?xml version="1.0" encoding="UTF-8" standalone="no"?>
<svg
   xmlns:dc="http://purl.org/dc/elements/1.1/"
   xmlns:cc="http://creativecommons.org/ns#"
   xmlns:rdf="http://www.w3.org/1999/02/22-rdf-syntax-ns#"
   xmlns:svg="http://www.w3.org/2000/svg"
   xmlns="http://www.w3.org/2000/svg"
   xmlns:sodipodi="http://sodipodi.sourceforge.net/DTD/sodipodi-0.dtd"
   xmlns:inkscape="http://www.inkscape.org/namespaces/inkscape"
   sodipodi:docname="check-icon.svg"
   inkscape:version="1.0 (4035a4fb49, 2020-05-01)"
   id="svg61"
   version="1.1"
   viewBox="0 0 54.732769 54.732769"
   height="54.732769mm"
   width="54.732769mm">
  <defs
     id="defs55" />
  <sodipodi:namedview
     inkscape:window-maximized="0"
     inkscape:window-y="0"
     inkscape:window-x="0"
     inkscape:window-height="729"
     inkscape:window-width="1350"
     showgrid="false"
     inkscape:document-rotation="0"
     inkscape:current-layer="layer1"
     inkscape:document-units="mm"
     inkscape:cy="76.479928"
     inkscape:cx="114.81504"
     inkscape:zoom="2.7556338"
     inkscape:pageshadow="2"
     inkscape:pageopacity="0.0"
     borderopacity="1.0"
     bordercolor="#666666"
     pagecolor="#ffffff"
     id="base" />
  <metadata
     id="metadata58">
    <rdf:RDF>
      <cc:Work
         rdf:about="">
        <dc:format>image/svg+xml</dc:format>
        <dc:type
           rdf:resource="http://purl.org/dc/dcmitype/StillImage" />
        <dc:title></dc:title>
      </cc:Work>
    </rdf:RDF>
  </metadata>
  <g
     transform="translate(-81.707134,-108.59145)"
     id="layer1"
     inkscape:groupmode="layer"
     inkscape:label="Layer 1">
    <path
       style="stroke-width:0.264583"
       fill="#cd3333"
       d="m 121.17079,127.27448 a 2.1378333,2.1378333 0 0 1 0,3.02365 l -14.3428,14.34333 a 2.1383625,2.1383625 0 0 1 -3.02365,0 l -6.827841,-6.82836 a 2.1378333,2.1378333 0 0 1 3.023129,-3.02314 l 5.316272,5.31601 12.83229,-12.83229 a 2.1383625,2.1383625 0 0 1 3.02366,0 z m 15.26911,8.68362 a 27.366383,27.366383 0 1 1 -27.36612,-27.36665 27.351302,27.351302 0 0 1 27.36612,27.36639 z m -4.27594,0 a 23.090187,23.090187 0 1 0 -23.09018,23.09019 23.077487,23.077487 0 0 0 23.08966,-23.09045 z m 0,0"
       id="correct" />
  </g>
</svg>
