<?xml version="1.0" encoding="UTF-8" standalone="no"?>
<svg
   xmlns:dc="http://purl.org/dc/elements/1.1/"
   xmlns:cc="http://creativecommons.org/ns#"
   xmlns:rdf="http://www.w3.org/1999/02/22-rdf-syntax-ns#"
   xmlns:svg="http://www.w3.org/2000/svg"
   xmlns="http://www.w3.org/2000/svg"
   xmlns:sodipodi="http://sodipodi.sourceforge.net/DTD/sodipodi-0.dtd"
   xmlns:inkscape="http://www.inkscape.org/namespaces/inkscape"
   sodipodi:docname="course-management-icon.svg"
   inkscape:version="1.0 (4035a4fb49, 2020-05-01)"
   id="svg784"
   version="1.1"
   viewBox="0 0 24.603819 24.620802"
   height="24.620802mm"
   width="24.603819mm">
  <defs
     id="defs778" />
  <sodipodi:namedview
     inkscape:window-maximized="0"
     inkscape:window-y="0"
     inkscape:window-x="0"
     inkscape:window-height="729"
     inkscape:window-width="1350"
     showgrid="false"
     inkscape:document-rotation="0"
     inkscape:current-layer="layer1"
     inkscape:document-units="mm"
     inkscape:cy="188.47485"
     inkscape:cx="202.63136"
     inkscape:zoom="0.34445423"
     inkscape:pageshadow="2"
     inkscape:pageopacity="0.0"
     borderopacity="1.0"
     bordercolor="#666666"
     pagecolor="#ffffff"
     id="base" />
  <metadata
     id="metadata781">
    <rdf:RDF>
      <cc:Work
         rdf:about="">
        <dc:format>image/svg+xml</dc:format>
        <dc:type
           rdf:resource="http://purl.org/dc/dcmitype/StillImage" />
        <dc:title></dc:title>
      </cc:Work>
    </rdf:RDF>
  </metadata>
  <g
     transform="translate(-52.220452,-98.299362)"
     id="layer1"
     inkscape:groupmode="layer"
     inkscape:label="Layer 1">
    <g
       transform="matrix(0.26458333,0,0,0.26458333,51.690095,97.770195)"
       id="execution">
      <path
         fill="#484343"
         transform="translate(23.688,6.611)"
         d="M 45,20.2 A 6.2,6.2 0 1 0 51.2,14 6.2,6.2 0 0 0 45,20.2 Z m 6.2,-3.1 a 3.1,3.1 0 1 1 -3.1,3.1 3.1,3.1 0 0 1 3.1,-3.1 z"
         data-name="Path 437"
         id="Path_437" />
      <path
         fill="#484343"
         transform="translate(3.305,18.179)"
         d="m 8,35 h 54.281 v 3.1 H 8 Z"
         data-name="Path 438"
         id="Path_438" />
      <path
         fill="#484343"
         d="m 93.5,76.442 a 6.2035,6.2035 0 1 1 0,-12.407 1.551,1.551 0 0 0 0,-3.1 h -9.3 a 6.2035,6.2035 0 0 1 0,-12.407 1.551,1.551 0 1 0 0,-3.1 h -7.758 v -3.1 h 1.551 a 1.551,1.551 0 0 0 1.5,-1.179 l 0.5,-2 1.784,1.07 a 1.573,1.573 0 0 0 1.892,-0.233 l 4.389,-4.389 a 1.593,1.593 0 0 0 0.233,-1.908 l -1.07,-1.768 2,-0.5 a 1.551,1.551 0 0 0 1.179,-1.5 v -6.2 a 1.551,1.551 0 0 0 -1.179,-1.5 l -2,-0.5 1.07,-1.784 a 1.573,1.573 0 0 0 -0.233,-1.892 l -4.389,-4.389 a 1.573,1.573 0 0 0 -1.892,-0.233 l -1.784,1.07 -0.5,-2 a 1.551,1.551 0 0 0 -1.5,-1.179 H 76.442 V 6.653 A 4.667,4.667 0 0 0 71.79,2 H 25.263 A 4.667,4.667 0 0 0 20.61,6.653 v 38.772 h -6.2 a 9.3055,9.3055 0 0 0 0,18.611 h 2.39 a 9.251,9.251 0 0 0 0,12.407 h -5.49 a 9.3055,9.3055 0 1 0 0,18.611 H 81.1 a 1.551,1.551 0 1 0 0,-3.1 6.2035,6.2035 0 0 1 0,-12.407 h 12.4 a 1.551,1.551 0 0 0 0,-3.1 z m -16.717,-62.035 0.713,2.854 a 1.621,1.621 0 0 0 0.915,1.07 1.587,1.587 0 0 0 1.4,-0.109 L 82.32,16.7 85,19.385 83.483,21.9 a 1.551,1.551 0 0 0 0.962,2.311 l 2.854,0.713 v 3.784 l -2.854,0.713 a 1.551,1.551 0 0 0 -0.962,2.311 l 1.517,2.511 -2.68,2.683 -2.512,-1.52 a 1.587,1.587 0 0 0 -1.4,-0.109 1.621,1.621 0 0 0 -0.915,1.07 L 76.78,39.221 H 73 l -0.713,-2.854 a 1.621,1.621 0 0 0 -0.915,-1.07 1.587,1.587 0 0 0 -1.4,0.109 l -2.512,1.52 -2.68,-2.683 1.52,-2.513 a 1.551,1.551 0 0 0 -0.962,-2.311 l -2.854,-0.713 v -3.784 l 2.854,-0.713 A 1.551,1.551 0 0 0 66.3,21.9 l -1.52,-2.512 2.683,-2.688 2.512,1.52 a 1.587,1.587 0 0 0 1.4,0.109 1.621,1.621 0 0 0 0.915,-1.07 L 73,14.407 Z M 33.018,5.1 H 64.035 V 6.653 A 1.551,1.551 0 0 1 62.484,8.2 H 34.568 A 1.551,1.551 0 0 1 33.017,6.649 Z M 23.712,6.653 A 1.551,1.551 0 0 1 25.263,5.1 h 4.653 v 1.553 a 4.667,4.667 0 0 0 4.653,4.653 H 62.484 A 4.667,4.667 0 0 0 67.137,6.653 V 5.1 h 4.653 a 1.551,1.551 0 0 1 1.55,1.553 v 4.653 h -1.55 a 1.551,1.551 0 0 0 -1.5,1.179 l -0.5,2 -1.784,-1.07 a 1.573,1.573 0 0 0 -1.892,0.233 l -4.389,4.389 a 1.573,1.573 0 0 0 -0.233,1.892 l 1.07,1.784 -2,0.5 a 1.551,1.551 0 0 0 -1.179,1.5 v 6.2 a 1.551,1.551 0 0 0 1.179,1.5 l 2,0.5 -1.07,1.768 a 1.593,1.593 0 0 0 0.233,1.908 l 4.389,4.389 a 1.573,1.573 0 0 0 1.892,0.233 l 1.784,-1.07 0.5,2 a 1.551,1.551 0 0 0 1.5,1.179 h 1.55 v 3.1 H 23.712 Z m -9.305,54.28 a 6.2035,6.2035 0 1 1 0,-12.407 h 62.857 a 9.3,9.3 0 0 0 0,12.407 z M 74.162,91.951 H 11.305 a 6.2035,6.2035 0 0 1 0,-12.407 h 62.857 a 9.3,9.3 0 0 0 0,12.407 z M 86.569,76.442 H 23.712 a 6.2035,6.2035 0 0 1 0,-12.407 h 62.857 a 9.3,9.3 0 0 0 0,12.407 z"
         data-name="Path 439"
         id="Path_439" />
      <path
         fill="#484343"
         transform="translate(23.688,18.179)"
         d="m 45,35 h 3.1 v 3.1 H 45 Z"
         data-name="Path 440"
         id="Path_440" />
      <path
         fill="#484343"
         transform="translate(2.204,29.197)"
         d="m 6,55 h 54.281 v 3.1 H 6 Z"
         data-name="Path 441"
         id="Path_441" />
      <path
         fill="#484343"
         transform="translate(22.586,29.197)"
         d="m 43,55 h 3.1 v 3.1 H 43 Z"
         data-name="Path 442"
         id="Path_442" />
      <path
         fill="#484343"
         transform="translate(8.814,23.688)"
         d="m 18,45 h 54.281 v 3.1 H 18 Z"
         data-name="Path 443"
         id="Path_443" />
      <path
         fill="#484343"
         transform="translate(6.611,23.688)"
         d="m 14,45 h 3.1 v 3.1 H 14 Z"
         data-name="Path 444"
         id="Path_444" />
      <path
         fill="#484343"
         transform="translate(11.018,8.263)"
         d="m 22,17 h 3.1 v 3.1 H 22 Z"
         data-name="Path 445"
         id="Path_445" />
      <path
         fill="#484343"
         transform="translate(13.221,8.263)"
         d="m 26,17 h 15.509 v 3.1 H 26 Z"
         data-name="Path 446"
         id="Path_446" />
      <path
         fill="#484343"
         transform="translate(11.018,6.06)"
         d="m 22,13 h 6.2 v 3.1 H 22 Z"
         data-name="Path 447"
         id="Path_447" />
      <path
         fill="#484343"
         transform="translate(14.323,6.06)"
         d="m 28,13 h 12.407 v 3.1 H 28 Z"
         data-name="Path 448"
         id="Path_448" />
      <path
         fill="#484343"
         transform="translate(11.018,10.467)"
         d="m 22,21 h 12.407 v 3.1 H 22 Z"
         data-name="Path 449"
         id="Path_449" />
      <path
         fill="#484343"
         transform="translate(16.526,10.467)"
         d="m 32,21 h 6.2 v 3.1 H 32 Z"
         data-name="Path 450"
         id="Path_450" />
    </g>
  </g>
</svg>
