<?xml version="1.0" encoding="UTF-8" standalone="no"?>
<svg
   xmlns:dc="http://purl.org/dc/elements/1.1/"
   xmlns:cc="http://creativecommons.org/ns#"
   xmlns:rdf="http://www.w3.org/1999/02/22-rdf-syntax-ns#"
   xmlns:svg="http://www.w3.org/2000/svg"
   xmlns="http://www.w3.org/2000/svg"
   xmlns:sodipodi="http://sodipodi.sourceforge.net/DTD/sodipodi-0.dtd"
   xmlns:inkscape="http://www.inkscape.org/namespaces/inkscape"
   sodipodi:docname="getting-started-icon.svg"
   inkscape:version="1.0 (4035a4fb49, 2020-05-01)"
   id="svg819"
   version="1.1"
   viewBox="0 0 25.516378 25.516417"
   height="25.516417mm"
   width="25.516378mm">
  <defs
     id="defs813" />
  <sodipodi:namedview
     inkscape:window-maximized="0"
     inkscape:window-y="0"
     inkscape:window-x="0"
     inkscape:window-height="729"
     inkscape:window-width="1350"
     showgrid="false"
     inkscape:document-rotation="0"
     inkscape:current-layer="layer1"
     inkscape:document-units="mm"
     inkscape:cy="259.8428"
     inkscape:cx="114.35844"
     inkscape:zoom="0.34445423"
     inkscape:pageshadow="2"
     inkscape:pageopacity="0.0"
     borderopacity="1.0"
     bordercolor="#666666"
     pagecolor="#ffffff"
     id="base" />
  <metadata
     id="metadata816">
    <rdf:RDF>
      <cc:Work
         rdf:about="">
        <dc:format>image/svg+xml</dc:format>
        <dc:type
           rdf:resource="http://purl.org/dc/dcmitype/StillImage" />
        <dc:title></dc:title>
      </cc:Work>
    </rdf:RDF>
  </metadata>
  <g
     transform="translate(-75.575996,-79.416594)"
     id="layer1"
     inkscape:groupmode="layer"
     inkscape:label="Layer 1">
    <g
       transform="matrix(0.26458333,0,0,0.26458333,75.046829,78.887427)"
       id="requirement">
      <path
         fill="#484343"
         transform="translate(3.037,4.251)"
         d="m 8.607,25.073 h 12.859 a 1.607,1.607 0 0 0 1.607,-1.607 v -4.822 h -3.214 v 3.215 h -9.644 v -9.644 h 4.822 V 9 H 8.607 A 1.607,1.607 0 0 0 7,10.607 v 12.859 a 1.607,1.607 0 0 0 1.607,1.607 z"
         data-name="Path 381"
         id="Path_381" />
      <path
         fill="#484343"
         transform="translate(4.429,3.822)"
         d="M 13.644,16.8 11.566,14.722 9.293,17 l 3.215,3.215 a 1.607,1.607 0 0 0 2.273,0 l 9.644,-9.644 -2.273,-2.278 z"
         data-name="Path 382"
         id="Path_382" />
      <path
         fill="#484343"
         transform="translate(3.037,12.147)"
         d="m 19.859,34.859 h -9.644 v -9.644 h 4.822 V 22 H 8.607 A 1.607,1.607 0 0 0 7,23.607 v 12.859 a 1.607,1.607 0 0 0 1.607,1.607 h 12.859 a 1.607,1.607 0 0 0 1.607,-1.607 v -4.822 h -3.214 z"
         data-name="Path 383"
         id="Path_383" />
      <path
         fill="#484343"
         transform="translate(4.429,11.717)"
         d="M 13.644,29.8 11.566,27.722 9.293,30 l 3.215,3.215 a 1.607,1.607 0 0 0 2.273,0 l 9.644,-9.644 -2.273,-2.273 z"
         data-name="Path 384"
         id="Path_384" />
      <path
         fill="#484343"
         transform="translate(3.037,20.042)"
         d="M 21.466,35 H 8.607 A 1.607,1.607 0 0 0 7,36.607 v 12.859 a 1.607,1.607 0 0 0 1.607,1.607 h 12.859 a 1.607,1.607 0 0 0 1.607,-1.607 V 36.607 A 1.607,1.607 0 0 0 21.466,35 Z m -1.607,12.859 h -9.644 v -9.644 h 9.644 z"
         data-name="Path 385"
         id="Path_385" />
      <path
         fill="#484343"
         transform="translate(3.037,27.937)"
         d="M 21.466,48 H 8.607 A 1.607,1.607 0 0 0 7,49.607 v 12.859 a 1.607,1.607 0 0 0 1.607,1.607 h 12.859 a 1.607,1.607 0 0 0 1.607,-1.607 V 49.607 A 1.607,1.607 0 0 0 21.466,48 Z m -1.607,12.859 h -9.644 v -9.644 h 9.644 z"
         data-name="Path 386"
         id="Path_386" />
      <path
         fill="#484343"
         d="m 91.539,7.293 a 1.607,1.607 0 0 0 -2.273,0 L 79.152,17.408 64.215,2.471 A 1.608,1.608 0 0 0 63.078,2 H 3.607 A 1.607,1.607 0 0 0 2,3.607 v 93.225 a 1.607,1.607 0 0 0 1.607,1.608 h 75.545 a 1.607,1.607 0 0 0 1.607,-1.607 V 33.2 L 97.969,16 a 1.607,1.607 0 0 0 0,-2.273 z m -14,87.932 H 5.215 V 5.215 h 57.2 L 75.271,18.073 H 64.686 v -8.036 h -3.215 v 9.644 a 1.607,1.607 0 0 0 1.607,1.607 H 75.271 L 37.832,58.727 a 1.613,1.613 0 0 0 -0.388,0.628 L 34.229,69 a 1.608,1.608 0 0 0 2.033,2.034 l 9.644,-3.215 a 1.614,1.614 0 0 0 0.628,-0.388 l 31.01,-31.01 z M 39.671,62.839 42.423,65.591 38.3,66.966 Z M 45.4,64.02 41.244,59.864 90.4,10.7 l 4.156,4.156 z"
         data-name="Path 387"
         id="Path_387" />
      <path
         fill="#484343"
         transform="translate(26.115,32.796)"
         d="m 45,56 h 3.215 v 3.215 H 45 Z"
         data-name="Path 388"
         id="Path_388" />
      <path
         fill="#484343"
         transform="translate(23.686,32.796)"
         d="m 41,56 h 3.215 v 3.215 H 41 Z"
         data-name="Path 389"
         id="Path_389" />
      <path
         fill="#484343"
         transform="translate(21.256,32.796)"
         d="m 37,56 h 3.215 v 3.215 H 37 Z"
         data-name="Path 390"
         id="Path_390" />
    </g>
  </g>
</svg>
