<?xml version="1.0" encoding="UTF-8" standalone="no"?>
<svg
   xmlns:dc="http://purl.org/dc/elements/1.1/"
   xmlns:cc="http://creativecommons.org/ns#"
   xmlns:rdf="http://www.w3.org/1999/02/22-rdf-syntax-ns#"
   xmlns:svg="http://www.w3.org/2000/svg"
   xmlns="http://www.w3.org/2000/svg"
   xmlns:sodipodi="http://sodipodi.sourceforge.net/DTD/sodipodi-0.dtd"
   xmlns:inkscape="http://www.inkscape.org/namespaces/inkscape"
   sodipodi:docname="gmail-icon.svg"
   inkscape:version="1.0 (4035a4fb49, 2020-05-01)"
   id="svg263"
   version="1.1"
   viewBox="0 0 21.990314 16.535135"
   height="16.535135mm"
   width="21.990314mm">
  <defs
     id="defs257" />
  <sodipodi:namedview
     inkscape:window-maximized="0"
     inkscape:window-y="0"
     inkscape:window-x="0"
     inkscape:window-height="729"
     inkscape:window-width="1350"
     showgrid="false"
     inkscape:document-rotation="0"
     inkscape:current-layer="layer1"
     inkscape:document-units="mm"
     inkscape:cy="118.03512"
     inkscape:cx="-72.299893"
     inkscape:zoom="0.34445423"
     inkscape:pageshadow="2"
     inkscape:pageopacity="0.0"
     borderopacity="1.0"
     bordercolor="#666666"
     pagecolor="#ffffff"
     id="base" />
  <metadata
     id="metadata260">
    <rdf:RDF>
      <cc:Work
         rdf:about="">
        <dc:format>image/svg+xml</dc:format>
        <dc:type
           rdf:resource="http://purl.org/dc/dcmitype/StillImage" />
        <dc:title></dc:title>
      </cc:Work>
    </rdf:RDF>
  </metadata>
  <g
     transform="translate(-124.96268,-116.93654)"
     id="layer1"
     inkscape:groupmode="layer"
     inkscape:label="Layer 1">
    <g
       transform="matrix(0.26458333,0,0,0.26458333,124.96268,116.93654)"
       id="gmail">
      <rect
         id="Rectangle_64"
         data-name="Rectangle 64"
         width="62"
         height="62"
         transform="translate(10.437,0.495)"
         fill="#eceff1"
         x="0"
         y="0" />
      <path
         id="Path_247"
         data-name="Path 247"
         d="m 256,172.649 31.166,24.611 v -48.588 z"
         transform="translate(-214.445,-134.928)"
         fill="#cfd8dc" />
      <path
         id="Path_248"
         data-name="Path 248"
         d="m 75.318,64 h -2.6 L 41.555,88.611 10.389,64 h -2.6 A 7.794,7.794 0 0 0 0,71.792 v 46.749 a 7.794,7.794 0 0 0 7.792,7.792 h 2.6 V 77.744 l 31.166,23.972 31.163,-23.977 v 48.593 h 2.6 a 7.794,7.794 0 0 0 7.792,-7.792 V 71.792 A 7.794,7.794 0 0 0 75.318,64 Z"
         transform="translate(0,-64)"
         fill="#f44336" />
    </g>
  </g>
</svg>
