<?xml version="1.0" encoding="UTF-8" standalone="no"?>
<svg
   xmlns:dc="http://purl.org/dc/elements/1.1/"
   xmlns:cc="http://creativecommons.org/ns#"
   xmlns:rdf="http://www.w3.org/1999/02/22-rdf-syntax-ns#"
   xmlns:svg="http://www.w3.org/2000/svg"
   xmlns="http://www.w3.org/2000/svg"
   xmlns:sodipodi="http://sodipodi.sourceforge.net/DTD/sodipodi-0.dtd"
   xmlns:inkscape="http://www.inkscape.org/namespaces/inkscape"
   sodipodi:docname="instagram-icon.svg"
   inkscape:version="1.0 (4035a4fb49, 2020-05-01)"
   id="svg335"
   version="1.1"
   viewBox="0 0 17.058216 17.058216"
   height="17.058216mm"
   width="17.058216mm">
  <defs
     id="defs329">
    <linearGradient
       id="linear-gradient"
       x1="5.415648"
       y1="59.056355"
       x2="59.056355"
       y2="5.415648"
       gradientUnits="userSpaceOnUse">
      <stop
         offset="0"
         stop-color="#ffd600"
         id="stop13" />
      <stop
         offset="0.5"
         stop-color="#ff0100"
         id="stop15" />
      <stop
         offset="1"
         stop-color="#d800b9"
         id="stop17" />
    </linearGradient>
    <linearGradient
       id="linear-gradient-2"
       x1="129.37347"
       y1="152.81152"
       x2="152.81252"
       y2="129.37248"
       gradientUnits="userSpaceOnUse">
      <stop
         offset="0"
         stop-color="#ff6400"
         id="stop20" />
      <stop
         offset="0.5"
         stop-color="#ff0100"
         id="stop22" />
      <stop
         offset="1"
         stop-color="#fd0056"
         id="stop24" />
    </linearGradient>
    <linearGradient
       id="linear-gradient-3"
       x1="363.05945"
       y1="95.231544"
       x2="368.53653"
       y2="89.754456"
       gradientUnits="userSpaceOnUse">
      <stop
         offset="0"
         stop-color="#f30072"
         id="stop27" />
      <stop
         offset="1"
         stop-color="#e50097"
         id="stop29" />
    </linearGradient>
  </defs>
  <sodipodi:namedview
     inkscape:window-maximized="0"
     inkscape:window-y="0"
     inkscape:window-x="0"
     inkscape:window-height="729"
     inkscape:window-width="1350"
     showgrid="false"
     inkscape:document-rotation="0"
     inkscape:current-layer="layer1"
     inkscape:document-units="mm"
     inkscape:cy="-110.32469"
     inkscape:cx="-87.426658"
     inkscape:zoom="0.34445423"
     inkscape:pageshadow="2"
     inkscape:pageopacity="0.0"
     borderopacity="1.0"
     bordercolor="#666666"
     pagecolor="#ffffff"
     id="base" />
  <metadata
     id="metadata332">
    <rdf:RDF>
      <cc:Work
         rdf:about="">
        <dc:format>image/svg+xml</dc:format>
        <dc:type
           rdf:resource="http://purl.org/dc/dcmitype/StillImage" />
        <dc:title></dc:title>
      </cc:Work>
    </rdf:RDF>
  </metadata>
  <g
     transform="translate(-128.96497,-177.35674)"
     id="layer1"
     inkscape:groupmode="layer"
     inkscape:label="Layer 1">
    <g
       transform="matrix(0.26458333,0,0,0.26458333,128.96497,177.35674)"
       id="instagram-sketched">
      <path
         id="Path_296"
         data-name="Path 296"
         d="M 64.277,18.945 A 23.666,23.666 0 0 0 62.777,11.12 15.8,15.8 0 0 0 59.06,5.41 15.8,15.8 0 0 0 53.35,1.691 23.661,23.661 0 0 0 45.525,0.191 C 42.088,0.037 40.99,0 32.235,0 23.48,0 22.382,0.037 18.945,0.194 a 23.669,23.669 0 0 0 -7.825,1.5 15.8,15.8 0 0 0 -5.71,3.716 15.8,15.8 0 0 0 -3.719,5.71 23.664,23.664 0 0 0 -1.5,7.825 C 0.037,22.383 0,23.48 0,32.235 0,40.99 0.037,42.088 0.195,45.526 a 23.66,23.66 0 0 0 1.5,7.825 15.8,15.8 0 0 0 3.716,5.709 15.794,15.794 0 0 0 5.71,3.718 23.653,23.653 0 0 0 7.825,1.5 c 3.438,0.157 4.536,0.194 13.29,0.194 8.754,0 9.853,-0.037 13.29,-0.194 a 23.656,23.656 0 0 0 7.825,-1.5 16.48,16.48 0 0 0 9.427,-9.427 23.658,23.658 0 0 0 1.5,-7.825 c 0.156,-3.438 0.194,-4.536 0.194,-13.29 0,-8.754 -0.037,-9.853 -0.194,-13.29 z m -5.8,26.317 a 17.835,17.835 0 0 1 -1.11,5.986 10.675,10.675 0 0 1 -6.118,6.118 17.835,17.835 0 0 1 -5.986,1.11 c -3.4,0.155 -4.418,0.188 -13.026,0.188 -8.608,0 -9.627,-0.032 -13.026,-0.188 A 17.841,17.841 0 0 1 13.225,57.366 9.99,9.99 0 0 1 9.519,54.954 9.986,9.986 0 0 1 7.107,51.248 17.835,17.835 0 0 1 6,45.262 C 5.845,41.862 5.812,40.844 5.812,32.236 5.812,23.628 5.841,22.609 6,19.21 A 17.848,17.848 0 0 1 7.11,13.224 9.994,9.994 0 0 1 9.517,9.517 9.98,9.98 0 0 1 13.224,7.106 17.832,17.832 0 0 1 19.21,6 c 3.4,-0.155 4.418,-0.188 13.026,-0.188 v 0 c 8.607,0 9.627,0.033 13.026,0.188 a 17.838,17.838 0 0 1 5.986,1.11 9.995,9.995 0 0 1 3.706,2.411 9.98,9.98 0 0 1 2.411,3.707 17.819,17.819 0 0 1 1.11,5.986 c 0.155,3.4 0.188,4.418 0.188,13.026 0,8.608 -0.032,9.627 -0.188,13.026 z m 0,0"
         fill="url(#linear-gradient)"
         style="fill:url(#linear-gradient)" />
      <path
         id="Path_297"
         data-name="Path 297"
         d="m 141.092,124.539 a 16.553,16.553 0 1 0 16.554,16.554 16.553,16.553 0 0 0 -16.554,-16.554 z m 0,27.3 a 10.745,10.745 0 1 1 10.745,-10.745 10.745,10.745 0 0 1 -10.745,10.743 z m 0,0"
         transform="translate(-108.857,-108.857)"
         fill="url(#linear-gradient-2)"
         style="fill:url(#linear-gradient-2)" />
      <path
         id="Path_298"
         data-name="Path 298"
         d="m 369.666,92.494 a 3.868,3.868 0 1 1 -3.868,-3.869 3.868,3.868 0 0 1 3.868,3.869 z m 0,0"
         transform="translate(-316.356,-77.466)"
         fill="url(#linear-gradient-3)"
         style="fill:url(#linear-gradient-3)" />
    </g>
  </g>
</svg>
