<?xml version="1.0" encoding="UTF-8" standalone="no"?>
<svg
   xmlns:dc="http://purl.org/dc/elements/1.1/"
   xmlns:cc="http://creativecommons.org/ns#"
   xmlns:rdf="http://www.w3.org/1999/02/22-rdf-syntax-ns#"
   xmlns:svg="http://www.w3.org/2000/svg"
   xmlns="http://www.w3.org/2000/svg"
   xmlns:sodipodi="http://sodipodi.sourceforge.net/DTD/sodipodi-0.dtd"
   xmlns:inkscape="http://www.inkscape.org/namespaces/inkscape"
   sodipodi:docname="paint-brush.svg"
   inkscape:version="1.0 (4035a4fb49, 2020-05-01)"
   id="svg3915"
   version="1.1"
   viewBox="0 0 162.67059 185.34697"
   height="185.34697mm"
   width="162.67059mm">
  <defs
     id="defs3909" />
  <sodipodi:namedview
     inkscape:window-maximized="0"
     inkscape:window-y="0"
     inkscape:window-x="0"
     inkscape:window-height="729"
     inkscape:window-width="1350"
     showgrid="false"
     inkscape:document-rotation="0"
     inkscape:current-layer="layer1"
     inkscape:document-units="mm"
     inkscape:cy="399.30876"
     inkscape:cx="300.96892"
     inkscape:zoom="0.34445423"
     inkscape:pageshadow="2"
     inkscape:pageopacity="0.0"
     borderopacity="1.0"
     bordercolor="#666666"
     pagecolor="#ffffff"
     id="base" />
  <metadata
     id="metadata3912">
    <rdf:RDF>
      <cc:Work
         rdf:about="">
        <dc:format>image/svg+xml</dc:format>
        <dc:type
           rdf:resource="http://purl.org/dc/dcmitype/StillImage" />
        <dc:title></dc:title>
      </cc:Work>
    </rdf:RDF>
  </metadata>
  <g
     transform="translate(-26.201974,-42.516223)"
     id="layer1"
     inkscape:groupmode="layer"
     inkscape:label="Layer 1">
    <g
       id="design"
       transform="matrix(0.26458333,0,0,0.26458333,17.869451,42.516223)"
       opacity="0.82">
      <path
         id="Path_127"
         data-name="Path 127"
         d="M 332.73,533.76 H 209.493 V 416 H 332.73 Z m -82.158,-27.386 h 41.079 v -49.295 h -41.079 z"
         transform="translate(65.736,153.631)"
         fill="#8b8992" />
      <path
         id="Path_128"
         data-name="Path 128"
         d="m 255.993,457.079 h 18.486 v 49.295 h -18.486 v 27.386 h 59.565 V 416 h -59.565 z"
         transform="translate(82.909,153.631)"
         fill="#57555c" />
      <path
         id="Path_129"
         data-name="Path 129"
         d="M 646.311,464.633 H 31.493 V 136 h 614.818 z"
         transform="translate(0,50.225)"
         fill="#9bc9ff" />
      <rect
         id="Rectangle_48"
         data-name="Rectangle 48"
         width="307.409"
         height="328.633"
         transform="translate(338.898,186.225)"
         fill="#009ae5"
         x="0"
         y="0" />
      <rect
         id="Rectangle_49"
         data-name="Rectangle 49"
         width="206"
         height="41"
         transform="translate(233.405,659.524)"
         fill="#005ece"
         x="0"
         y="0" />
      <path
         id="Path_130"
         data-name="Path 130"
         d="M 272.73,451.707 H 149.493 V 171 H 272.73 Z"
         transform="translate(43.578,63.151)"
         fill="#b87fd9" />
      <path
         id="Path_131"
         data-name="Path 131"
         d="M 256.112,451.707 H 194.493 V 171 h 61.619 z"
         transform="translate(60.197,63.151)"
         fill="#8034ad" />
      <path
         id="Path_132"
         data-name="Path 132"
         d="M 374.735,179.379 H 112.671 L 59.39,0 h 78.383 c 27.987,0 60.562,10.015 86.074,28.073 V 0 h 204.168 z"
         transform="translate(10.302)"
         fill="#8b8992" />
      <path
         id="Path_133"
         data-name="Path 133"
         d="M 378.305,0 H 193.993 v 179.379 h 131.033 z"
         transform="translate(60.012)"
         fill="#57555c" />
      <path
         id="Path_134"
         data-name="Path 134"
         d="M 305,237.93 H 157.112 A 61.689,61.689 0 0 1 95.493,176.311 V 101 h 271.122 v 75.312 A 61.689,61.689 0 0 1 305,237.93 Z"
         transform="translate(23.635,37.3)"
         fill="#e3cef0" />
      <path
         id="Path_135"
         data-name="Path 135"
         d="m 194.493,101 v 136.93 h 73.942 a 61.689,61.689 0 0 0 61.619,-61.619 V 101 Z"
         transform="translate(60.197,37.3)"
         fill="#d5b4e8" />
      <path
         id="Path_136"
         data-name="Path 136"
         d="M 447.142,161.648 A 72.17,72.17 0 0 1 428.586,19.769 l 69.695,-18.675 18.673,69.695 a 72.152,72.152 0 0 1 -51.02,88.368 72.526,72.526 0 0 1 -18.792,2.491 z"
         transform="translate(126.886,0.404)"
         fill="#e0e0e2" />
      <path
         id="Path_137"
         data-name="Path 137"
         d="M 507.215,70.789 488.541,1.094 v 0 l -87.1,150.855 v 0 a 71.714,71.714 0 0 0 35.959,9.7 72.575,72.575 0 0 0 18.792,-2.489 72.15,72.15 0 0 0 51.019,-88.368 z"
         transform="translate(136.624,0.404)"
         fill="#acabb1" />
      <path
         id="Path_138"
         data-name="Path 138"
         d="M 309.7,506.6 202.973,444.982 374.136,148.519 480.862,210.138 Z"
         transform="translate(63.328,54.849)"
         fill="#ffe477" />
      <rect
         id="Rectangle_50"
         data-name="Rectangle 50"
         width="61.617001"
         height="342.319"
         transform="matrix(-0.866,-0.5,0.5,-0.866,373.023,561.444)"
         fill="#ffa733"
         x="0"
         y="0" />
      <path
         id="Path_139"
         data-name="Path 139"
         d="M 439.775,284.156 301.426,204.28 420.65,69.146 l 76.541,44.192 z"
         transform="translate(99.687,25.536)"
         fill="#ff9a00" />
      <path
         id="Path_140"
         data-name="Path 140"
         d="m 478.535,107.378 -38.271,-22.1 -88.32,152.975 69.175,39.947 z"
         transform="translate(118.344,31.495)"
         fill="#e67500" />
      <path
         id="Path_141"
         data-name="Path 141"
         d="M 646.311,482.93 H 31.493 V 346 h 614.818 z"
         transform="translate(0,127.779)"
         fill="#005ece" />
      <g
         id="Group_47"
         data-name="Group 47"
         transform="translate(337.252,473.779)">
        <rect
           id="Rectangle_51"
           data-name="Rectangle 51"
           width="307.409"
           height="136.92999"
           transform="translate(1.645)"
           fill="#003f8a"
           x="0"
           y="0" />
        <rect
           id="Rectangle_52"
           data-name="Rectangle 52"
           width="102"
           height="41"
           transform="translate(0.152,185.745)"
           fill="#003f8a"
           x="0"
           y="0" />
      </g>
    </g>
  </g>
</svg>
