<?xml version="1.0" encoding="UTF-8" standalone="no"?>
<svg
   xmlns:dc="http://purl.org/dc/elements/1.1/"
   xmlns:cc="http://creativecommons.org/ns#"
   xmlns:rdf="http://www.w3.org/1999/02/22-rdf-syntax-ns#"
   xmlns:svg="http://www.w3.org/2000/svg"
   xmlns="http://www.w3.org/2000/svg"
   xmlns:sodipodi="http://sodipodi.sourceforge.net/DTD/sodipodi-0.dtd"
   xmlns:inkscape="http://www.inkscape.org/namespaces/inkscape"
   sodipodi:docname="paypal-icon.svg"
   inkscape:version="1.0 (4035a4fb49, 2020-05-01)"
   id="svg2576"
   version="1.1"
   viewBox="0 0 18.341862 21.494259"
   height="21.494259mm"
   width="18.341862mm">
  <defs
     id="defs2570" />
  <sodipodi:namedview
     inkscape:window-maximized="0"
     inkscape:window-y="0"
     inkscape:window-x="0"
     inkscape:window-height="729"
     inkscape:window-width="1350"
     showgrid="false"
     inkscape:document-rotation="0"
     inkscape:current-layer="layer1"
     inkscape:document-units="mm"
     inkscape:cy="237.72615"
     inkscape:cx="283.69833"
     inkscape:zoom="0.34445423"
     inkscape:pageshadow="2"
     inkscape:pageopacity="0.0"
     borderopacity="1.0"
     bordercolor="#666666"
     pagecolor="#ffffff"
     id="base" />
  <metadata
     id="metadata2573">
    <rdf:RDF>
      <cc:Work
         rdf:about="">
        <dc:format>image/svg+xml</dc:format>
        <dc:type
           rdf:resource="http://purl.org/dc/dcmitype/StillImage" />
        <dc:title></dc:title>
      </cc:Work>
    </rdf:RDF>
  </metadata>
  <g
     transform="translate(-30.771484,-85.26829)"
     id="layer1"
     inkscape:groupmode="layer"
     inkscape:label="Layer 1">
    <g
       id="paypal"
       transform="matrix(0.26458333,0,0,0.26458333,20.845294,85.268321)">
      <path
         id="Path_336"
         data-name="Path 336"
         d="m 180.881,116.5 a 1.69,1.69 0 0 0 -2.539,1.276 c -0.061,0.555 -0.156,1.11 -0.274,1.692 -3.314,15.038 -9.968,22.353 -20.349,22.353 h -15.23 a 1.692,1.692 0 0 0 -1.655,1.354 l -5.077,23.8 -0.907,6.059 a 5.077,5.077 0 0 0 4.965,6.021 H 150 a 5.053,5.053 0 0 0 4.925,-3.855 l 4.116,-16.453 h 8.831 c 10.421,0 17.624,-8.309 20.281,-23.4 v 0 A 17.689,17.689 0 0 0 180.881,116.5 Z"
         transform="translate(-81.818,-97.817)"
         fill="#03a9f4" />
      <path
         id="Path_337"
         data-name="Path 337"
         d="M 95.872,6.032 A 17.81,17.81 0 0 0 82.671,0 H 54.646 a 8.418,8.418 0 0 0 -8.374,7.2 l -8.7,58.051 a 5.078,5.078 0 0 0 5.028,5.828 h 13 a 1.692,1.692 0 0 0 1.655,-1.354 l 4.789,-22.339 h 13.872 c 12.043,0 20,-8.418 23.656,-25.047 a 19.931,19.931 0 0 0 0.338,-2.007 17.476,17.476 0 0 0 -4.038,-14.3 z"
         fill="#283593" />
    </g>
  </g>
</svg>
