<?xml version="1.0" encoding="UTF-8" standalone="no"?>
<svg
   xmlns:dc="http://purl.org/dc/elements/1.1/"
   xmlns:cc="http://creativecommons.org/ns#"
   xmlns:rdf="http://www.w3.org/1999/02/22-rdf-syntax-ns#"
   xmlns:svg="http://www.w3.org/2000/svg"
   xmlns="http://www.w3.org/2000/svg"
   xmlns:sodipodi="http://sodipodi.sourceforge.net/DTD/sodipodi-0.dtd"
   xmlns:inkscape="http://www.inkscape.org/namespaces/inkscape"
   sodipodi:docname="quality-icon.svg"
   inkscape:version="1.0 (4035a4fb49, 2020-05-01)"
   id="svg868"
   version="1.1"
   viewBox="0 0 14.821164 20.195116"
   height="20.195116mm"
   width="14.821164mm">
  <defs
     id="defs862" />
  <sodipodi:namedview
     inkscape:window-maximized="0"
     inkscape:window-y="0"
     inkscape:window-x="0"
     inkscape:window-height="729"
     inkscape:window-width="1350"
     showgrid="false"
     inkscape:document-rotation="0"
     inkscape:current-layer="layer1"
     inkscape:document-units="mm"
     inkscape:cy="136.5642"
     inkscape:cx="175.43503"
     inkscape:zoom="0.34445423"
     inkscape:pageshadow="2"
     inkscape:pageopacity="0.0"
     borderopacity="1.0"
     bordercolor="#666666"
     pagecolor="#ffffff"
     id="base" />
  <metadata
     id="metadata865">
    <rdf:RDF>
      <cc:Work
         rdf:about="">
        <dc:format>image/svg+xml</dc:format>
        <dc:type
           rdf:resource="http://purl.org/dc/dcmitype/StillImage" />
        <dc:title></dc:title>
      </cc:Work>
    </rdf:RDF>
  </metadata>
  <g
     transform="translate(-59.416149,-112.03406)"
     id="layer1"
     inkscape:groupmode="layer"
     inkscape:label="Layer 1">
    <g
       transform="matrix(0.26458333,0,0,0.26458333,57.034899,111.84382)"
       id="standard">
      <path
         fill="#484343"
         transform="translate(2.613,2.021)"
         d="m 37.383,11.659 -0.077,-0.127 a 3.532,3.532 0 0 0 -5.822,0 L 22.517,28.711 A 13.457,13.457 0 0 0 21,34.9 v 0.67 a 13.4,13.4 0 1 0 26.791,0 V 34.9 a 13.454,13.454 0 0 0 -1.517,-6.192 z m 7.973,23.914 a 10.96,10.96 0 0 1 -21.92,0 V 34.9 a 11.011,11.011 0 0 1 1.242,-5.067 l 8.851,-16.974 a 1.139,1.139 0 0 1 1.737,0 l 8.848,16.976 a 11.007,11.007 0 0 1 1.241,5.065 z"
         data-name="Path 451"
         id="Path_451" />
      <path
         fill="#484343"
         transform="translate(3.484,4.634)"
         d="m 37.178,22 h -7.307 v 4.871 H 25 v 7.307 h 4.871 v 4.871 h 7.307 v -4.871 h 4.871 v -7.307 h -4.871 z m 2.436,7.307 v 2.436 h -4.872 v 4.871 h -2.435 v -4.872 h -4.871 v -2.435 h 4.871 v -4.871 h 2.436 v 4.871 z"
         data-name="Path 452"
         id="Path_452" />
      <path
         fill="#484343"
         transform="translate(0.872,1.083)"
         d="m 58.942,42.569 0.329,-0.379 -0.034,-0.5 C 58.937,37.256 56.81,22.256 55.076,10.758 L 54.919,9.722 h -4.9 A 25.942,25.942 0 0 1 36.759,6.061 L 36.137,5.69 35.514,6.061 A 25.938,25.938 0 0 1 22.25,9.721 h -4.9 l -0.15,1.036 c -1.734,11.5 -3.864,26.5 -4.161,30.932 l -0.034,0.5 0.329,0.379 c 1.7,1.964 7.924,6.47 19.841,12.7 a 6.408,6.408 0 0 0 5.927,0 c 11.918,-6.23 18.136,-10.736 19.841,-12.7 z m -20.97,10.542 a 3.993,3.993 0 0 1 -3.672,0 C 22.766,47.079 17.245,43.035 15.505,41.325 c 0.4,-4.779 2.313,-18.3 3.944,-29.169 h 2.8 a 28.362,28.362 0 0 0 13.888,-3.642 28.361,28.361 0 0 0 13.886,3.642 h 2.8 c 1.631,10.869 3.547,24.391 3.944,29.17 -1.739,1.709 -7.259,5.755 -18.795,11.785 z"
         data-name="Path 453"
         id="Path_453" />
      <path
         fill="#484343"
         d="m 65.017,43.683 c 0,-4.908 -4.686,-35.421 -4.886,-36.718 L 59.973,5.932 H 50.895 A 21.085,21.085 0 0 1 37.77,1.332 L 37.009,0.719 36.248,1.328 a 21.085,21.085 0 0 1 -13.125,4.6 H 14.044 L 13.886,6.961 C 13.686,8.262 9,38.775 9,43.683 c 0,2.235 3.4,5.51 10.1,9.77 l -8.9,13.683 11.389,-1.424 4.25,11.335 8.422,-15.441 a 11.131,11.131 0 0 0 5.487,0 l 8.422,15.441 4.25,-11.335 11.389,1.424 -8.891,-13.683 c 6.698,-4.26 10.099,-7.535 10.099,-9.77 z M 26.255,71.207 23.2,63.058 15.1,64.07 21.166,54.738 c 3,1.816 6.525,3.791 10.619,5.932 0.056,0.029 0.117,0.049 0.173,0.077 z m 6.661,-12.7 c -14.758,-7.717 -21.48,-13.1 -21.48,-14.828 0,-4.234 3.863,-29.828 4.7,-35.315 h 6.988 A 23.543,23.543 0 0 0 37.009,3.813 23.543,23.543 0 0 0 50.895,8.368 h 6.988 c 0.837,5.487 4.7,31.081 4.7,35.315 0,1.732 -6.722,7.111 -21.48,14.828 A 9,9 0 0 1 32.916,58.51 Z m 26,5.559 -8.1,-1.012 -3.057,8.149 -5.702,-10.457 c 0.056,-0.028 0.117,-0.047 0.173,-0.077 4.094,-2.141 7.622,-4.115 10.619,-5.932 z"
         data-name="Path 454"
         id="Path_454" />
    </g>
  </g>
</svg>
