<?xml version="1.0" encoding="UTF-8" standalone="no"?>
<svg
   xmlns:dc="http://purl.org/dc/elements/1.1/"
   xmlns:cc="http://creativecommons.org/ns#"
   xmlns:rdf="http://www.w3.org/1999/02/22-rdf-syntax-ns#"
   xmlns:svg="http://www.w3.org/2000/svg"
   xmlns="http://www.w3.org/2000/svg"
   xmlns:sodipodi="http://sodipodi.sourceforge.net/DTD/sodipodi-0.dtd"
   xmlns:inkscape="http://www.inkscape.org/namespaces/inkscape"
   sodipodi:docname="rating-icon.svg"
   inkscape:version="1.0 (4035a4fb49, 2020-05-01)"
   id="svg1053"
   version="1.1"
   viewBox="0 0 25.176327 20.460594"
   height="20.460594mm"
   width="25.176327mm">
  <defs
     id="defs1047" />
  <sodipodi:namedview
     inkscape:window-maximized="0"
     inkscape:window-y="0"
     inkscape:window-x="0"
     inkscape:window-height="729"
     inkscape:window-width="1350"
     showgrid="false"
     inkscape:document-rotation="0"
     inkscape:current-layer="layer1"
     inkscape:document-units="mm"
     inkscape:cy="122.55016"
     inkscape:cx="29.524668"
     inkscape:zoom="0.34445423"
     inkscape:pageshadow="2"
     inkscape:pageopacity="0.0"
     borderopacity="1.0"
     bordercolor="#666666"
     pagecolor="#ffffff"
     id="base" />
  <metadata
     id="metadata1050">
    <rdf:RDF>
      <cc:Work
         rdf:about="">
        <dc:format>image/svg+xml</dc:format>
        <dc:type
           rdf:resource="http://purl.org/dc/dcmitype/StillImage" />
        <dc:title></dc:title>
      </cc:Work>
    </rdf:RDF>
  </metadata>
  <g
     transform="translate(-98.021598,-115.74194)"
     id="layer1"
     inkscape:groupmode="layer"
     inkscape:label="Layer 1">
    <g
       transform="matrix(0.26458333,0,0,0.26458333,98.021499,103.05213)"
       id="review">
      <path
         fill="#484343"
         d="m 24.89,56.434 -7.326,-1.065 -3.276,-6.638 a 1.4,1.4 0 0 0 -2.5,0 L 8.513,55.369 1.188,56.434 A 1.4,1.4 0 0 0 0.416,58.81 l 5.3,5.167 -1.251,7.3 a 1.4,1.4 0 0 0 2.022,1.469 l 6.552,-3.446 6.552,3.445 a 1.4,1.4 0 0 0 2.022,-1.469 l -1.251,-7.3 5.3,-5.167 A 1.4,1.4 0 0 0 24.89,56.432 Z m -7,6.059 a 1.394,1.394 0 0 0 -0.4,1.233 l 0.9,5.236 -4.7,-2.472 a 1.394,1.394 0 0 0 -1.3,0 l -4.7,2.472 0.9,-5.236 a 1.394,1.394 0 0 0 -0.4,-1.233 l -3.8,-3.708 5.257,-0.764 a 1.393,1.393 0 0 0 1.049,-0.762 l 2.343,-4.759 2.351,4.76 a 1.393,1.393 0 0 0 1.049,0.762 l 5.257,0.764 z"
         data-name="Path 391"
         id="Path_391" />
      <path
         fill="#484343"
         transform="translate(0,-114.805)"
         d="m 24.89,197.434 -7.326,-1.065 -3.276,-6.638 a 1.4,1.4 0 0 0 -2.5,0 l -3.276,6.638 -7.326,1.065 a 1.4,1.4 0 0 0 -0.772,2.377 l 5.3,5.167 -1.251,7.3 a 1.4,1.4 0 0 0 2.022,1.469 l 6.552,-3.445 6.552,3.445 a 1.4,1.4 0 0 0 2.022,-1.469 l -1.251,-7.3 5.3,-5.167 a 1.4,1.4 0 0 0 -0.77,-2.377 z m -7,6.059 a 1.394,1.394 0 0 0 -0.4,1.233 l 0.9,5.236 -4.7,-2.472 a 1.394,1.394 0 0 0 -1.3,0 l -4.7,2.472 0.9,-5.236 a 1.394,1.394 0 0 0 -0.4,-1.233 l -3.8,-3.708 5.257,-0.764 a 1.393,1.393 0 0 0 1.049,-0.762 l 2.351,-4.763 2.351,4.763 a 1.393,1.393 0 0 0 1.049,0.762 l 5.257,0.764 z"
         data-name="Path 392"
         id="Path_392" />
      <path
         fill="#484343"
         transform="translate(0,-229.609)"
         d="m 24.89,338.434 -7.326,-1.065 -3.276,-6.638 a 1.4,1.4 0 0 0 -2.5,0 l -3.276,6.638 -7.326,1.065 a 1.4,1.4 0 0 0 -0.772,2.377 l 5.3,5.167 -1.251,7.3 a 1.4,1.4 0 0 0 2.022,1.469 l 6.552,-3.445 6.552,3.445 a 1.4,1.4 0 0 0 2.022,-1.469 l -1.251,-7.3 5.3,-5.167 a 1.4,1.4 0 0 0 -0.77,-2.377 z m -7,6.06 a 1.394,1.394 0 0 0 -0.4,1.233 l 0.9,5.236 -4.7,-2.472 a 1.394,1.394 0 0 0 -1.3,0 l -4.7,2.472 0.9,-5.236 a 1.394,1.394 0 0 0 -0.4,-1.233 l -3.8,-3.708 5.257,-0.764 a 1.393,1.393 0 0 0 1.049,-0.762 l 2.351,-4.763 2.351,4.763 a 1.393,1.393 0 0 0 1.049,0.762 l 5.257,0.764 z"
         data-name="Path 393"
         id="Path_393" />
      <path
         fill="#484343"
         transform="translate(-144.264,-21.476)"
         d="m 236.168,74.342 h -4.014 a 1.3935,1.3935 0 1 0 0,2.787 h 4.014 a 0.465,0.465 0 0 1 0.464,0.464 v 8.546 a 0.465,0.465 0 0 1 -0.464,0.464 h -55.735 a 0.465,0.465 0 0 1 -0.464,-0.464 v -8.546 a 0.465,0.465 0 0 1 0.464,-0.464 h 45.218 a 1.3935,1.3935 0 0 0 0,-2.787 h -45.218 a 3.255,3.255 0 0 0 -3.251,3.251 v 8.546 a 3.255,3.255 0 0 0 3.251,3.251 h 55.735 a 3.255,3.255 0 0 0 3.251,-3.251 v -8.546 a 3.255,3.255 0 0 0 -3.251,-3.251 z"
         data-name="Path 394"
         id="Path_394" />
      <path
         fill="#484343"
         transform="translate(-184.889,-48.345)"
         d="m 228.469,107.342 a 1.3935,1.3935 0 1 0 0,2.787 h 39.014 a 1.3935,1.3935 0 0 0 0,-2.787 z"
         data-name="Path 395"
         id="Path_395" />
      <path
         fill="#484343"
         transform="translate(-144.264,-136.28)"
         d="m 221.305,215.342 h -40.872 a 3.255,3.255 0 0 0 -3.251,3.251 v 8.546 a 3.255,3.255 0 0 0 3.251,3.251 H 211.9 a 1.3935,1.3935 0 0 0 0,-2.787 h -31.467 a 0.465,0.465 0 0 1 -0.464,-0.464 v -8.546 a 0.465,0.465 0 0 1 0.464,-0.464 h 40.872 a 0.465,0.465 0 0 1 0.464,0.464 v 8.546 a 0.465,0.465 0 0 1 -0.464,0.464 h -2.9 a 1.3935,1.3935 0 0 0 0,2.787 h 2.9 a 3.255,3.255 0 0 0 3.251,-3.251 v -8.546 a 3.255,3.255 0 0 0 -3.251,-3.251 z"
         data-name="Path 396"
         id="Path_396" />
      <path
         fill="#484343"
         transform="translate(-184.889,-163.149)"
         d="m 254.479,248.342 h -26.01 a 1.3935,1.3935 0 1 0 0,2.787 h 26.01 a 1.3935,1.3935 0 0 0 0,-2.787 z"
         data-name="Path 397"
         id="Path_397" />
      <path
         fill="#484343"
         transform="translate(-144.264,-251.085)"
         d="M 202.727,356.342 H 189.8 a 1.3935,1.3935 0 1 0 0,2.787 h 12.932 a 0.465,0.465 0 0 1 0.464,0.464 v 8.546 a 0.465,0.465 0 0 1 -0.464,0.464 h -22.299 a 0.465,0.465 0 0 1 -0.464,-0.464 v -8.546 a 0.465,0.465 0 0 1 0.464,-0.464 h 2.86 a 1.3935,1.3935 0 1 0 0,-2.787 h -2.86 a 3.255,3.255 0 0 0 -3.251,3.251 v 8.546 a 3.255,3.255 0 0 0 3.251,3.251 h 22.294 a 3.255,3.255 0 0 0 3.251,-3.251 v -8.546 a 3.255,3.255 0 0 0 -3.251,-3.251 z"
         data-name="Path 398"
         id="Path_398" />
      <path
         fill="#484343"
         transform="translate(-180.904,-277.954)"
         d="m 232.865,392.129 a 1.3935,1.3935 0 0 0 0,-2.787 h -9.289 a 1.3935,1.3935 0 0 0 0,2.787 z"
         data-name="Path 399"
         id="Path_399" />
    </g>
  </g>
</svg>
