<?xml version="1.0" encoding="UTF-8" standalone="no"?>
<svg
   xmlns:dc="http://purl.org/dc/elements/1.1/"
   xmlns:cc="http://creativecommons.org/ns#"
   xmlns:rdf="http://www.w3.org/1999/02/22-rdf-syntax-ns#"
   xmlns:svg="http://www.w3.org/2000/svg"
   xmlns="http://www.w3.org/2000/svg"
   xmlns:sodipodi="http://sodipodi.sourceforge.net/DTD/sodipodi-0.dtd"
   xmlns:inkscape="http://www.inkscape.org/namespaces/inkscape"
   sodipodi:docname="trust-icon.svg"
   inkscape:version="1.0 (4035a4fb49, 2020-05-01)"
   id="svg837"
   version="1.1"
   viewBox="0 0 28.073179 20.344286"
   height="20.344286mm"
   width="28.073179mm">
  <defs
     id="defs831" />
  <sodipodi:namedview
     inkscape:window-maximized="0"
     inkscape:window-y="0"
     inkscape:window-x="0"
     inkscape:window-height="729"
     inkscape:window-width="1350"
     showgrid="false"
     inkscape:document-rotation="0"
     inkscape:current-layer="layer1"
     inkscape:document-units="mm"
     inkscape:cy="162.97439"
     inkscape:cx="110.48076"
     inkscape:zoom="0.34445423"
     inkscape:pageshadow="2"
     inkscape:pageopacity="0.0"
     borderopacity="1.0"
     bordercolor="#666666"
     pagecolor="#ffffff"
     id="base" />
  <metadata
     id="metadata834">
    <rdf:RDF>
      <cc:Work
         rdf:about="">
        <dc:format>image/svg+xml</dc:format>
        <dc:type
           rdf:resource="http://purl.org/dc/dcmitype/StillImage" />
        <dc:title></dc:title>
      </cc:Work>
    </rdf:RDF>
  </metadata>
  <g
     transform="translate(-76.601966,-105.04636)"
     id="layer1"
     inkscape:groupmode="layer"
     inkscape:label="Layer 1">
    <g
       transform="matrix(0.26458333,0,0,0.26458333,76.58096,86.426733)"
       id="trust">
      <path
         fill="#484343"
         transform="translate(0,-84.116)"
         d="M 86.129,196.871 77.6,205.4 c -0.111,-0.135 -0.229,-0.266 -0.356,-0.392 l -11.01,-11.01 a 1.559,1.559 0 0 0 -2.2,2.2 l 11.01,11.01 a 2.4274976,2.4274976 0 1 1 -3.433,3.433 l -6.118,-6.118 a 1.559,1.559 0 0 0 -2.2,2.2 l 6.118,6.118 v 0 a 2.4271441,2.4271441 0 0 1 -3.433,3.432 l -6.118,-6.118 a 1.559,1.559 0 0 0 -2.2,2.2 l 6.118,6.118 a 2.4274976,2.4274976 0 0 1 -3.433,3.433 L 54.22,215.8 a 1.559,1.559 0 1 0 -2.2,2.2 l 6.118,6.118 a 2.4274976,2.4274976 0 1 1 -3.433,3.433 l -3.963,-3.963 a 5.487,5.487 0 0 0 -0.823,-6.693 l -0.094,-0.094 a 5.47,5.47 0 0 0 -4.423,-1.574 5.471,5.471 0 0 0 -4.15,-4.942 5.482,5.482 0 0 0 -7.481,-6.913 5.474,5.474 0 0 0 -9.142,-2.381 l -0.643,0.643 -0.469,-0.469 a 3.964,3.964 0 0 1 -1.169,-2.821 v -4.065 a 1.559,1.559 0 0 0 -0.456,-1.1 l -6.654,-6.654 1.871,-1.871 a 1.559,1.559 0 0 0 -2.2,-2.2 l -2.509,2.501 a 1.214,1.214 0 0 1 -1.714,0 l -8.02,-8.02 a 1.559,1.559 0 0 0 -2.2,2.2 l 8.02,8.02 a 4.3,4.3 0 0 0 4.116,1.131 l 6.635,6.634 v 3.419 a 7.061,7.061 0 0 0 2.082,5.025 l 0.469,0.469 -0.522,0.522 a 5.475,5.475 0 0 0 3.874,9.349 h 0.067 c 0,0.023 0,0.046 0,0.069 a 5.478,5.478 0 0 0 5.478,5.478 h 0.069 a 5.467,5.467 0 0 0 5.474,5.542 h 0.069 a 5.461,5.461 0 0 0 1.6,3.943 l 0.094,0.094 a 5.478,5.478 0 0 0 7.747,0 l 2.923,-2.923 3.848,3.848 a 5.54,5.54 0 0 0 9.46,-4.015 h 0.1 a 5.538,5.538 0 0 0 5.54,-5.642 h 0.1 a 5.54,5.54 0 0 0 5.544,-5.542 c 0,-0.033 0,-0.065 0,-0.1 h 0.095 a 5.534,5.534 0 0 0 5.528,-5.914 l 9.478,-9.478 a 1.559,1.559 0 0 0 -2.2,-2.2 z M 23.46,209.9 a 2.361,2.361 0 0 1 0,-3.339 l 3.368,-3.368 a 2.3610295,2.3610295 0 1 1 3.339,3.339 L 26.8,209.9 a 2.364,2.364 0 0 1 -3.339,0 z m 7.213,6.235 A 2.361,2.361 0 0 1 29,212.107 l 3.369,-3.369 2.094,-2.094 a 2.3610295,2.3610295 0 0 1 3.339,3.339 l -5.463,5.463 a 2.346,2.346 0 0 1 -1.669,0.691 z m 3.873,4.851 a 2.364,2.364 0 0 1 0,-3.339 l 3.718,-3.718 a 2.3610296,2.3610296 0 0 1 3.34,3.338 l -3.719,3.719 a 2.363,2.363 0 0 1 -3.338,0.003 z m 8.976,5.637 a 2.36,2.36 0 0 1 -3.339,0 l -0.094,-0.094 a 2.363,2.363 0 0 1 0,-3.339 l 3.718,-3.718 v 0 l 0.467,-0.467 a 2.364,2.364 0 0 1 3.339,0 l 0.094,0.094 a 2.363,2.363 0 0 1 0,3.339 z"
         data-name="Path 457"
         id="Path_457" />
      <path
         fill="#484343"
         transform="translate(-72.972)"
         d="m 178.7,99.386 a 1.558,1.558 0 0 0 -2.2,0 l -5.841,5.841 a 0.212,0.212 0 0 1 -0.295,0 L 149.71,85.506 a 0.211,0.211 0 0 1 0,-0.3 L 161.957,72.96 a 1.559,1.559 0 0 0 -2.2,-2.2 L 147.5,83 a 3.321,3.321 0 0 0 -0.289,4.372 l -5.6,5.5 -5.281,-2.945 a 4.654,4.654 0 0 0 -2.263,-0.589 h -15 l -1.142,-1.142 a 10.507,10.507 0 0 0 -3.712,-2.4 l -4.153,-1.582 -1.919,-1.919 a 4.333,4.333 0 0 0 -0.651,-5.279 l -6.254,-6.254 a 1.559,1.559 0 0 0 -2.2,2.2 l 6.254,6.254 a 1.214,1.214 0 0 1 0,1.714 L 92.58,93.64 a 1.559,1.559 0 0 0 2.2,2.2 l 11.253,-11.253 2.059,2.059 a 1.561,1.561 0 0 0 0.547,0.355 l 4.465,1.7 a 7.407,7.407 0 0 1 2.559,1.64 c -0.095,0.08 -0.187,0.162 -0.276,0.25 l -5.927,5.928 a 6.227,6.227 0 0 0 8.359,9.215 l 4.486,-3.688 h 4.673 l 5.339,5.339 a 1.559,1.559 0 0 0 2.2,-2.2 l -3.857,-3.857 a 1.557,1.557 0 0 0 -1.314,-2.395 h -7.6 a 1.558,1.558 0 0 0 -0.99,0.355 l -4.917,4.042 a 3.111,3.111 0 0 1 -4.175,-4.6 l 5.928,-5.928 a 1.166,1.166 0 0 1 0.831,-0.344 h 15.649 a 1.53,1.53 0 0 1 0.744,0.194 l 5.84,3.257 a 2.273,2.273 0 0 0 2.682,-0.359 l 6.1,-5.987 16.808,16.055 -2.447,2.447 a 1.559,1.559 0 0 0 2.2,2.2 l 2.517,-2.517 a 3.345,3.345 0 0 0 4.337,-0.315 l 5.841,-5.84 a 1.559,1.559 0 0 0 0.006,-2.207 z"
         data-name="Path 458"
         id="Path_458" />
    </g>
  </g>
</svg>
