<?xml version="1.0" encoding="UTF-8" standalone="no"?>
<svg
   xmlns:dc="http://purl.org/dc/elements/1.1/"
   xmlns:cc="http://creativecommons.org/ns#"
   xmlns:rdf="http://www.w3.org/1999/02/22-rdf-syntax-ns#"
   xmlns:svg="http://www.w3.org/2000/svg"
   xmlns="http://www.w3.org/2000/svg"
   xmlns:sodipodi="http://sodipodi.sourceforge.net/DTD/sodipodi-0.dtd"
   xmlns:inkscape="http://www.inkscape.org/namespaces/inkscape"
   sodipodi:docname="user-icon.svg"
   inkscape:version="1.0 (4035a4fb49, 2020-05-01)"
   id="svg1534"
   version="1.1"
   viewBox="0 0 62.177082 63.764584"
   height="63.764584mm"
   width="62.177082mm">
  <defs
     id="defs1528" />
  <sodipodi:namedview
     inkscape:window-maximized="0"
     inkscape:window-y="0"
     inkscape:window-x="0"
     inkscape:window-height="729"
     inkscape:window-width="1350"
     showgrid="false"
     inkscape:document-rotation="0"
     inkscape:current-layer="layer1"
     inkscape:document-units="mm"
     inkscape:cy="213.09392"
     inkscape:cx="113.96306"
     inkscape:zoom="0.34445423"
     inkscape:pageshadow="2"
     inkscape:pageopacity="0.0"
     borderopacity="1.0"
     bordercolor="#666666"
     pagecolor="#ffffff"
     id="base" />
  <metadata
     id="metadata1531">
    <rdf:RDF>
      <cc:Work
         rdf:about="">
        <dc:format>image/svg+xml</dc:format>
        <dc:type
           rdf:resource="http://purl.org/dc/dcmitype/StillImage" />
        <dc:title></dc:title>
      </cc:Work>
    </rdf:RDF>
  </metadata>
  <g
     transform="translate(-75.680606,-91.785568)"
     id="layer1"
     inkscape:groupmode="layer"
     inkscape:label="Layer 1">
    <g
       transform="matrix(0.26458333,0,0,0.26458333,75.680606,91.785568)"
       id="user_2_"
       data-name="user (2)">
      <g
         id="Group_45"
         data-name="Group 45"
         transform="translate(152.143,232.412)">
        <path
           id="Path_77"
           data-name="Path 77"
           d="m 302.367,451.92 c -1.255,0.424 -2.519,0.836 -3.791,1.214 1.276,-0.383 2.536,-0.794 3.791,-1.214 z"
           transform="translate(-298.576,-449.609)"
           fill="#f9ede0" />
        <path
           id="Path_78"
           data-name="Path 78"
           d="m 314.21,447.472 c -1.355,0.54 -2.71,1.073 -4.09,1.563 1.38,-0.495 2.739,-1.023 4.09,-1.563 z"
           transform="translate(-304.122,-447.472)"
           fill="#f9ede0" />
      </g>
      <ellipse
         id="Ellipse_7"
         data-name="Ellipse 7"
         cx="117.5"
         cy="120.5"
         rx="117.5"
         ry="120.5"
         fill="#efece8" />
      <g
         id="Group_46"
         data-name="Group 46"
         transform="translate(65.411,229.165)">
        <path
           id="Path_79"
           data-name="Path 79"
           d="m 290.456,455.584 q -1.846,0.511 -3.72,0.969 1.877,-0.453 3.72,-0.969 z"
           transform="translate(-206.156,-448.123)"
           fill="#f9ede0" />
        <path
           id="Path_80"
           data-name="Path 80"
           d="m 211.134,462.982 c -1.472,-0.1 -2.939,-0.216 -4.39,-0.374 1.456,0.158 2.922,0.27 4.39,0.374 z"
           transform="translate(-167.728,-451.497)"
           fill="#f9ede0" />
        <path
           id="Path_81"
           data-name="Path 81"
           d="m 173.816,456.544 q -1.871,-0.455 -3.72,-0.969 1.852,0.518 3.72,0.969 z"
           transform="translate(-150.122,-448.119)"
           fill="#f9ede0" />
        <path
           id="Path_82"
           data-name="Path 82"
           d="m 198.3,461.481 c -1.318,-0.17 -2.631,-0.349 -3.937,-0.561 1.306,0.212 2.624,0.387 3.937,0.561 z"
           transform="translate(-161.783,-450.686)"
           fill="#f9ede0" />
        <path
           id="Path_83"
           data-name="Path 83"
           d="m 225.889,463.827 c -2.22,0 -4.419,-0.071 -6.609,-0.187 2.191,0.117 4.39,0.187 6.609,0.187 z"
           transform="translate(-173.75,-451.993)"
           fill="#f9ede0" />
        <path
           id="Path_84"
           data-name="Path 84"
           d="m 185.93,459.333 c -1.264,-0.233 -2.523,-0.482 -3.77,-0.756 1.247,0.274 2.507,0.523 3.77,0.756 z"
           transform="translate(-155.918,-449.56)"
           fill="#f9ede0" />
        <path
           id="Path_85"
           data-name="Path 85"
           d="m 137.474,443.834 q -2.812,-1.179 -5.554,-2.482 2.743,1.309 5.554,2.482 z"
           transform="translate(-131.783,-441.285)"
           fill="#f9ede0" />
        <path
           id="Path_86"
           data-name="Path 86"
           d="m 150.09,449.035 c -1.376,-0.495 -2.735,-1.023 -4.09,-1.563 1.355,0.54 2.714,1.068 4.09,1.563 z"
           transform="translate(-138.547,-444.226)"
           fill="#f9ede0" />
        <path
           id="Path_87"
           data-name="Path 87"
           d="m 238.609,463.64 c -2.191,0.116 -4.39,0.187 -6.609,0.187 2.22,0 4.419,-0.07 6.609,-0.187 z"
           transform="translate(-179.861,-451.993)"
           fill="#f9ede0" />
        <path
           id="Path_88"
           data-name="Path 88"
           d="m 253.2,462.608 c -1.455,0.158 -2.922,0.27 -4.39,0.374 1.465,-0.104 2.933,-0.216 4.39,-0.374 z"
           transform="translate(-187.935,-451.497)"
           fill="#f9ede0" />
        <path
           id="Path_89"
           data-name="Path 89"
           d="m 278.362,458.576 c -1.251,0.274 -2.507,0.524 -3.77,0.756 1.259,-0.232 2.519,-0.482 3.77,-0.756 z"
           transform="translate(-200.322,-449.56)"
           fill="#f9ede0" />
        <path
           id="Path_90"
           data-name="Path 90"
           d="m 266,460.912 c -1.305,0.212 -2.619,0.391 -3.936,0.561 1.314,-0.173 2.636,-0.345 3.936,-0.561 z"
           transform="translate(-194.304,-450.682)"
           fill="#f9ede0" />
        <path
           id="Path_91"
           data-name="Path 91"
           d="m 326.92,441.368 q -2.725,1.3 -5.529,2.473 c 1.867,-0.781 3.709,-1.6 5.529,-2.473 z"
           transform="translate(-222.804,-441.293)"
           fill="#f9ede0" />
        <path
           id="Path_92"
           data-name="Path 92"
           d="m 161.919,453.134 c -1.276,-0.383 -2.536,-0.794 -3.791,-1.214 1.255,0.42 2.515,0.831 3.791,1.214 z"
           transform="translate(-144.373,-446.362)"
           fill="#f9ede0" />
        <path
           id="Path_93"
           data-name="Path 93"
           d="m 319.763,446.128 c -0.582,0.245 -1.176,0.462 -1.763,0.694 0.582,-0.232 1.177,-0.449 1.763,-0.694 z"
           transform="translate(-221.175,-443.58)"
           fill="#f9ede0" />
        <path
           id="Path_94"
           data-name="Path 94"
           d="m 332.2,441.224 -0.166,0.075 c 0.052,-0.025 0.11,-0.046 0.166,-0.075 z"
           transform="translate(-227.916,-441.224)"
           fill="#f9ede0" />
        <path
           id="Path_95"
           data-name="Path 95"
           d="m 179.8,458.034 q -1.278,-0.28 -2.544,-0.586 1.266,0.305 2.544,0.586 z"
           transform="translate(-153.562,-449.018)"
           fill="#f9ede0" />
        <path
           id="Path_96"
           data-name="Path 96"
           d="m 191.981,460.489 c -0.86,-0.141 -1.717,-0.3 -2.573,-0.457 0.86,0.158 1.713,0.32 2.573,0.457 z"
           transform="translate(-159.4,-450.259)"
           fill="#f9ede0" />
        <path
           id="Path_97"
           data-name="Path 97"
           d="m 217.316,463.49 c -0.711,-0.037 -1.418,-0.112 -2.124,-0.162 0.708,0.05 1.413,0.125 2.124,0.162 z"
           transform="translate(-171.786,-451.843)"
           fill="#f9ede0" />
        <path
           id="Path_98"
           data-name="Path 98"
           d="m 204.438,462.316 c -0.836,-0.092 -1.663,-0.208 -2.494,-0.316 0.831,0.108 1.656,0.225 2.494,0.316 z"
           transform="translate(-165.422,-451.205)"
           fill="#f9ede0" />
        <path
           id="Path_99"
           data-name="Path 99"
           d="m 131.8,441.294 -0.141,-0.062 z"
           transform="translate(-131.656,-441.228)"
           fill="#f9ede0" />
        <path
           id="Path_100"
           data-name="Path 100"
           d="m 246.844,463.328 c -0.711,0.05 -1.413,0.125 -2.124,0.162 0.711,-0.037 1.413,-0.112 2.124,-0.162 z"
           transform="translate(-185.971,-451.843)"
           fill="#f9ede0" />
        <path
           id="Path_101"
           data-name="Path 101"
           d="m 296.328,454.256 c -0.806,0.241 -1.617,0.466 -2.432,0.69 0.815,-0.224 1.625,-0.446 2.432,-0.69 z"
           transform="translate(-209.596,-447.485)"
           fill="#f9ede0" />
        <path
           id="Path_102"
           data-name="Path 102"
           d="m 308.087,450.48 c -0.732,0.262 -1.471,0.5 -2.207,0.748 0.736,-0.249 1.476,-0.486 2.207,-0.748 z"
           transform="translate(-215.353,-445.671)"
           fill="#f9ede0" />
        <path
           id="Path_103"
           data-name="Path 103"
           d="m 144.378,446.83 c -0.586,-0.233 -1.181,-0.453 -1.762,-0.694 0.584,0.241 1.176,0.457 1.762,0.694 z"
           transform="translate(-136.921,-443.584)"
           fill="#f9ede0" />
        <path
           id="Path_104"
           data-name="Path 104"
           d="m 156.087,451.228 c -0.736,-0.249 -1.48,-0.486 -2.207,-0.748 0.727,0.262 1.467,0.499 2.207,0.748 z"
           transform="translate(-142.332,-445.671)"
           fill="#f9ede0" />
        <path
           id="Path_105"
           data-name="Path 105"
           d="m 259.75,462 c -0.831,0.108 -1.659,0.229 -2.494,0.316 0.836,-0.091 1.663,-0.208 2.494,-0.316 z"
           transform="translate(-191.994,-451.205)"
           fill="#f9ede0" />
        <path
           id="Path_106"
           data-name="Path 106"
           d="m 284.392,457.44 q -1.266,0.306 -2.544,0.586 1.278,-0.274 2.544,-0.586 z"
           transform="translate(-203.808,-449.014)"
           fill="#f9ede0" />
        <path
           id="Path_107"
           data-name="Path 107"
           d="m 272.2,460.032 c -0.856,0.158 -1.708,0.32 -2.573,0.457 0.873,-0.137 1.722,-0.299 2.573,-0.457 z"
           transform="translate(-197.939,-450.259)"
           fill="#f9ede0" />
        <path
           id="Path_108"
           data-name="Path 108"
           d="m 167.856,454.946 c -0.811,-0.224 -1.625,-0.449 -2.432,-0.69 0.806,0.244 1.617,0.466 2.432,0.69 z"
           transform="translate(-147.878,-447.485)"
           fill="#f9ede0" />
      </g>
      <path
         id="Path_109"
         data-name="Path 109"
         d="m 173.767,163.425 a 49.882,49.882 0 1 0 -55.186,0 0.015,0.015 0 0 0 0.008,0 95.719,95.719 0 0 0 -65.241,68.608 v 0 c 1.314,1.584 2.677,3.13 4.07,4.647 0.337,0.37 0.69,0.723 1.035,1.085 1.072,1.139 2.157,2.261 3.271,3.359 0.461,0.453 0.931,0.89 1.4,1.334 1.031,0.981 2.074,1.95 3.138,2.893 0.528,0.466 1.064,0.927 1.6,1.384 q 1.565,1.341 3.176,2.627 c 0.565,0.453 1.135,0.9 1.7,1.343 q 1.634,1.26 3.313,2.452 c 0.578,0.412 1.147,0.831 1.733,1.235 1.181,0.815 2.382,1.6 3.591,2.369 0.545,0.345 1.077,0.7 1.625,1.043 1.4,0.86 2.818,1.683 4.252,2.49 0.378,0.212 0.748,0.441 1.131,0.648 q 2.781,1.522 5.649,2.906 l 0.141,0.062 q 2.737,1.309 5.554,2.482 c 0.582,0.245 1.176,0.461 1.762,0.694 1.355,0.54 2.71,1.072 4.09,1.563 0.732,0.262 1.471,0.5 2.207,0.748 1.255,0.424 2.519,0.836 3.791,1.214 0.806,0.241 1.617,0.466 2.432,0.69 q 1.846,0.511 3.72,0.969 1.266,0.306 2.544,0.586 c 1.251,0.274 2.507,0.524 3.77,0.757 0.856,0.158 1.708,0.32 2.573,0.457 1.305,0.212 2.619,0.391 3.937,0.561 0.831,0.108 1.659,0.229 2.494,0.316 1.455,0.158 2.922,0.27 4.39,0.374 0.711,0.05 1.413,0.125 2.124,0.162 2.191,0.125 4.39,0.2 6.609,0.2 2.219,0 4.419,-0.071 6.609,-0.187 0.711,-0.037 1.417,-0.112 2.124,-0.162 1.472,-0.1 2.939,-0.216 4.39,-0.374 0.836,-0.091 1.663,-0.208 2.494,-0.316 1.318,-0.17 2.631,-0.349 3.937,-0.561 0.86,-0.141 1.717,-0.3 2.573,-0.457 1.264,-0.233 2.523,-0.482 3.77,-0.757 q 1.278,-0.28 2.544,-0.586 1.871,-0.455 3.72,-0.969 c 0.811,-0.224 1.625,-0.449 2.432,-0.69 1.276,-0.383 2.536,-0.794 3.791,-1.214 0.736,-0.249 1.48,-0.486 2.207,-0.748 1.376,-0.495 2.735,-1.023 4.09,-1.563 0.586,-0.233 1.181,-0.453 1.762,-0.694 1.866,-0.781 3.712,-1.6 5.529,-2.473 l 0.166,-0.075 q 2.868,-1.378 5.649,-2.906 c 0.382,-0.208 0.752,-0.436 1.131,-0.648 1.434,-0.806 2.856,-1.63 4.252,-2.49 0.549,-0.337 1.085,-0.694 1.625,-1.043 1.21,-0.773 2.411,-1.559 3.592,-2.369 0.582,-0.4 1.156,-0.819 1.733,-1.234 q 1.677,-1.2 3.313,-2.453 c 0.574,-0.441 1.139,-0.89 1.7,-1.343 q 1.609,-1.284 3.176,-2.627 c 0.536,-0.457 1.072,-0.919 1.6,-1.384 1.064,-0.944 2.108,-1.912 3.138,-2.893 0.466,-0.445 0.939,-0.885 1.4,-1.334 q 1.671,-1.646 3.271,-3.359 c 0.341,-0.366 0.694,-0.719 1.035,-1.085 1.393,-1.517 2.756,-3.064 4.069,-4.647 v 0 a 95.7,95.7 0 0 0 -65.225,-68.617 z"
         transform="translate(-28.625,-34.685)"
         fill="#c6c3bd" />
    </g>
  </g>
</svg>
