<?xml version="1.0" encoding="UTF-8" standalone="no"?>
<svg
   xmlns:dc="http://purl.org/dc/elements/1.1/"
   xmlns:cc="http://creativecommons.org/ns#"
   xmlns:rdf="http://www.w3.org/1999/02/22-rdf-syntax-ns#"
   xmlns:svg="http://www.w3.org/2000/svg"
   xmlns="http://www.w3.org/2000/svg"
   xmlns:sodipodi="http://sodipodi.sourceforge.net/DTD/sodipodi-0.dtd"
   xmlns:inkscape="http://www.inkscape.org/namespaces/inkscape"
   sodipodi:docname="visa-icon.svg"
   inkscape:version="1.0 (4035a4fb49, 2020-05-01)"
   id="svg360"
   version="1.1"
   viewBox="0 0 30.697426 19.180439"
   height="19.180439mm"
   width="30.697426mm">
  <defs
     id="defs354" />
  <sodipodi:namedview
     inkscape:window-maximized="0"
     inkscape:window-y="0"
     inkscape:window-x="0"
     inkscape:window-height="729"
     inkscape:window-width="1350"
     showgrid="false"
     inkscape:document-rotation="0"
     inkscape:current-layer="layer1"
     inkscape:document-units="mm"
     inkscape:cy="184.00014"
     inkscape:cx="54.473958"
     inkscape:zoom="0.34445423"
     inkscape:pageshadow="2"
     inkscape:pageopacity="0.0"
     borderopacity="1.0"
     bordercolor="#666666"
     pagecolor="#ffffff"
     id="base" />
  <metadata
     id="metadata357">
    <rdf:RDF>
      <cc:Work
         rdf:about="">
        <dc:format>image/svg+xml</dc:format>
        <dc:type
           rdf:resource="http://purl.org/dc/dcmitype/StillImage" />
        <dc:title></dc:title>
      </cc:Work>
    </rdf:RDF>
  </metadata>
  <g
     transform="translate(-91.420432,-99.483296)"
     id="layer1"
     inkscape:groupmode="layer"
     inkscape:label="Layer 1">
    <g
       transform="matrix(0.26458333,0,0,0.26458333,91.420167,99.483296)"
       id="mastercard">
      <path
         fill="#e2574c"
         transform="translate(0,-54.719)"
         d="M 72.487,90.973 A 36.243,36.243 0 1 1 36.243,54.719 36.244,36.244 0 0 1 72.487,90.973 Z"
         data-name="Path 325"
         id="Path_325" />
      <path
         fill="#f4b459"
         transform="translate(-65.918,-54.719)"
         d="m 145.688,54.719 a 36.044,36.044 0 0 0 -21.658,7.229 h 0.029 a 31.06,31.06 0 0 1 3.513,3.281 l -7.541,0.12 a 37.276,37.276 0 0 0 -3.274,3.839 h 13.3 a 33.675,33.675 0 0 1 2.8,3.611 h -18.5 a 36.135,36.135 0 0 0 -1.853,3.614 h 22.463 a 30.874,30.874 0 0 1 1.559,3.5 h -25.363 a 34.9,34.9 0 0 0 -1.008,3.836 h 27.423 c 0.268,1.255 0.475,2.414 0.616,3.6 h -28.583 c -0.12,1.193 -0.181,2.4 -0.181,3.626 h 28.97 a 31.83,31.83 0 0 1 -0.221,3.626 h -28.568 q 0.185,1.844 0.544,3.626 h 27.379 c -0.283,1.175 -0.609,2.356 -1.019,3.582 H 111.08 a 35.187,35.187 0 0 0 1.363,3.618 h 22.514 a 33.028,33.028 0 0 1 -2.11,3.611 h -18.565 a 35.259,35.259 0 0 0 2.418,3.64 l 13.356,0.2 a 35.275,35.275 0 0 1 -3.93,3.386 c 0.072,0.058 -2.128,-0.007 -6.461,-0.076 a 36.245,36.245 0 1 0 26.023,-61.466 z"
         data-name="Path 326"
         id="Path_326" />
    </g>
  </g>
</svg>
